<?xml version="1.0" standalone="no"?>
<!DOCTYPE svg PUBLIC "-//W3C//DTD SVG 1.1//EN" "http://www.w3.org/Graphics/SVG/1.1/DTD/svg11.dtd" >
<svg xmlns="http://www.w3.org/2000/svg">
<metadata>Generated by IcoMoon</metadata>
<defs>
<font id="icomoon" horiz-adv-x="1024">
<font-face units-per-em="1024" ascent="960" descent="-64" />
<missing-glyph horiz-adv-x="1024" />
<glyph unicode="&#x20;" horiz-adv-x="512" d="" />
<glyph unicode="&#xe005;" glyph-name="document2" horiz-adv-x="768" d="M48-64h672c26.464 0 48 21.536 48 48v672c0 0.544-0.256 0.992-0.288 1.504-0.064 0.736-0.256 1.376-0.416 2.080-0.544 2.272-1.472 4.32-2.88 6.112-0.224 0.288-0.192 0.64-0.416 0.928l-256 288c-0.096 0.096-0.224 0.096-0.32 0.192-1.92 2.048-4.352 3.456-7.136 4.288-0.608 0.192-1.152 0.256-1.792 0.352-0.928 0.16-1.792 0.544-2.752 0.544h-448c-26.464 0-48-21.536-48-48v-928c0-26.464 21.536-48 48-48zM512 901.92l204.384-229.92h-188.384c-7.040 0-16 13.44-16 24v205.92zM32 912c0 8.832 7.2 16 16 16h432v-232c0-25.888 20.96-56 48-56h208v-656c0-8.832-7.2-16-16-16h-672c-8.96 0-16 7.040-16 16v928zM176 512h416c8.832 0 16 7.168 16 16s-7.168 16-16 16h-416c-8.832 0-16-7.168-16-16s7.168-16 16-16zM176 384h416c8.832 0 16 7.168 16 16s-7.168 16-16 16h-416c-8.832 0-16-7.168-16-16s7.168-16 16-16zM176 640h192c8.832 0 16 7.168 16 16s-7.168 16-16 16h-192c-8.832 0-16-7.168-16-16s7.168-16 16-16zM176 256h416c8.832 0 16 7.168 16 16s-7.168 16-16 16h-416c-8.832 0-16-7.168-16-16s7.168-16 16-16zM176 128h416c8.832 0 16 7.168 16 16s-7.168 16-16 16h-416c-8.832 0-16-7.168-16-16s7.168-16 16-16z" />
<glyph unicode="&#xe006;" glyph-name="documents" horiz-adv-x="1088" d="M48.384 64h575.616c26.464 0 48 21.536 48 48v608c0 0.736-0.32 1.376-0.416 2.080s-0.224 1.312-0.416 1.984c-0.736 2.752-1.92 5.312-3.904 7.264l-223.968 223.968c-1.952 1.952-4.512 3.136-7.264 3.904-0.672 0.192-1.28 0.32-1.984 0.416-0.672 0.064-1.312 0.384-2.048 0.384h-383.808c-26.56 0-48.192-21.536-48.192-48v-800c0-26.464 21.696-48 48.384-48zM448 905.376l169.376-169.376h-153.376c-8.8 0-16 7.168-16 16v153.376zM32 912c0 8.832 7.264 16 16.192 16h367.808v-176c0-26.464 21.536-48 48-48h176v-592c0-8.832-7.2-16-16-16h-575.616c-9.056 0-16.384 7.168-16.384 16v800zM144 576h384c8.832 0 16 7.168 16 16s-7.168 16-16 16h-384c-8.832 0-16-7.168-16-16s7.168-16 16-16zM144 448h384c8.832 0 16 7.168 16 16s-7.168 16-16 16h-384c-8.832 0-16-7.168-16-16s7.168-16 16-16zM144 704h160c8.832 0 16 7.168 16 16s-7.168 16-16 16h-160c-8.832 0-16-7.168-16-16s7.168-16 16-16zM144 320h384c8.832 0 16 7.168 16 16s-7.168 16-16 16h-384c-8.832 0-16-7.168-16-16s7.168-16 16-16zM144 192h384c8.832 0 16 7.168 16 16s-7.168 16-16 16h-384c-8.832 0-16-7.168-16-16s7.168-16 16-16zM688 800h144v-176c0-26.464 21.536-48 48-48h176v-592c0-8.832-7.2-16-16-16h-575.616c-9.056 0-16.384 7.168-16.384 16v32c0 8.832-7.168 16-16 16s-16-7.168-16-16v-32c0-26.464 21.696-48 48.384-48h575.616c26.464 0 48 21.536 48 48v608c0 0.736-0.32 1.376-0.416 2.080s-0.224 1.312-0.416 1.984c-0.736 2.752-1.92 5.312-3.904 7.264l-223.968 223.968c-1.952 1.984-4.544 3.168-7.296 3.904-0.672 0.192-1.248 0.288-1.952 0.384-0.672 0.096-1.312 0.416-2.048 0.416h-160c-8.832 0-16-7.168-16-16s7.168-16 16-16zM880 608c-8.8 0-16 7.168-16 16v153.376l169.376-169.376h-153.376zM752 448h192c8.832 0 16 7.168 16 16s-7.168 16-16 16h-192c-8.832 0-16-7.168-16-16s7.168-16 16-16zM752 320h192c8.832 0 16 7.168 16 16s-7.168 16-16 16h-192c-8.832 0-16-7.168-16-16s7.168-16 16-16zM752 192h192c8.832 0 16 7.168 16 16s-7.168 16-16 16h-192c-8.832 0-16-7.168-16-16s7.168-16 16-16zM752 64h192c8.832 0 16 7.168 16 16s-7.168 16-16 16h-192c-8.832 0-16-7.168-16-16s7.168-16 16-16z" />
<glyph unicode="&#xe007;" glyph-name="search3" horiz-adv-x="1056" d="M48-64h672c26.464 0 48 21.536 48 48v240c0 0.32-0.16 0.576-0.192 0.896 1.76 1.12 3.584 2.176 5.312 3.36l255.552-255.552c3.136-3.136 7.232-4.704 11.328-4.704s8.192 1.568 11.328 4.672c6.24 6.24 6.24 16.384 0 22.624l-253.216 253.216c40.448 37.984 65.888 91.776 65.888 151.488 0 73.504-38.432 138.112-96.192 175.104 0.032 0.32 0.192 0.576 0.192 0.896v80c0 0.544-0.256 0.992-0.288 1.504-0.064 0.736-0.256 1.376-0.416 2.080-0.544 2.272-1.472 4.32-2.88 6.112-0.224 0.288-0.192 0.64-0.416 0.928l-256 288c-0.096 0.096-0.224 0.096-0.32 0.192-1.92 2.080-4.384 3.456-7.136 4.288-0.608 0.192-1.152 0.256-1.792 0.352-0.928 0.16-1.792 0.544-2.752 0.544h-448c-26.464 0-48-21.536-48-48v-928c0-26.464 21.536-48 48-48zM832 400c0-97.056-78.976-176-176-176s-176 78.944-176 176 78.976 176 176 176 176-78.944 176-176zM512 901.92l204.384-229.92h-188.384c-7.040 0-16 13.44-16 24v205.92zM32 912c0 8.832 7.2 16 16 16h432v-232c0-25.888 20.96-56 48-56h208v-48.032c-24.64 10.304-51.648 16.032-80 16.032-58.816 0-111.872-24.64-149.728-64h-330.272c-8.832 0-16-7.168-16-16s7.168-16 16-16h305.024c-18.080-28.128-29.504-60.832-32.192-96h-272.832c-8.832 0-16-7.168-16-16s7.168-16 16-16h272.8c2.688-35.168 14.144-67.872 32.192-96h-304.992c-8.832 0-16-7.168-16-16s7.168-16 16-16h328c0.672 0 1.248 0.288 1.92 0.384 37.888-39.584 91.104-64.384 150.080-64.384 28.352 0 55.36 5.728 80 16.064v-224.064c0-8.832-7.2-16-16-16h-672c-8.96 0-16 7.040-16 16v928zM176 640h192c8.832 0 16 7.168 16 16s-7.168 16-16 16h-192c-8.832 0-16-7.168-16-16s7.168-16 16-16zM176 128h416c8.832 0 16 7.168 16 16s-7.168 16-16 16h-416c-8.832 0-16-7.168-16-16s7.168-16 16-16z" />
<glyph unicode="&#xe00b;" glyph-name="book-open" horiz-adv-x="1344" d="M1200 928h-512c-12.704 0-23.68-4.352-32-11.584-8.32 7.232-19.296 11.584-32 11.584h-512c-27.808 0-48-20.192-48-48v-896c0-27.808 20.192-48 48-48h512c12.704 0 23.68 4.352 32 11.584 8.32-7.232 19.296-11.584 32-11.584h512c27.808 0 48 20.192 48 48v896c0 27.808-20.192 48-48 48zM624-32h-512c-10.016 0-16 5.984-16 16v896c0 10.016 5.984 16 16 16h512c10.016 0 16-5.984 16-16v-896c0-10.016-5.984-16-16-16zM1216-16c0-10.016-5.984-16-16-16h-512c-10.016 0-16 5.984-16 16v896c0 10.016 5.984 16 16 16h512c10.016 0 16-5.984 16-16v-896zM1296 864c-8.832 0-16-7.168-16-16v-832c0-8.832 7.168-16 16-16s16 7.168 16 16v832c0 8.832-7.168 16-16 16zM16 0c8.832 0 16 7.168 16 16v832c0 8.832-7.168 16-16 16s-16-7.168-16-16v-832c0-8.832 7.168-16 16-16zM560 640h-384c-8.832 0-16-7.168-16-16s7.168-16 16-16h384c8.832 0 16 7.168 16 16s-7.168 16-16 16zM560 512h-384c-8.832 0-16-7.168-16-16s7.168-16 16-16h384c8.832 0 16 7.168 16 16s-7.168 16-16 16zM560 768h-384c-8.832 0-16-7.168-16-16s7.168-16 16-16h384c8.832 0 16 7.168 16 16s-7.168 16-16 16zM560 384h-384c-8.832 0-16-7.168-16-16s7.168-16 16-16h384c8.832 0 16 7.168 16 16s-7.168 16-16 16zM560 256h-384c-8.832 0-16-7.168-16-16s7.168-16 16-16h384c8.832 0 16 7.168 16 16s-7.168 16-16 16zM560 128h-384c-8.832 0-16-7.168-16-16s7.168-16 16-16h384c8.832 0 16 7.168 16 16s-7.168 16-16 16zM1136 640h-384c-8.832 0-16-7.168-16-16s7.168-16 16-16h384c8.832 0 16 7.168 16 16s-7.168 16-16 16zM1136 512h-384c-8.832 0-16-7.168-16-16s7.168-16 16-16h384c8.832 0 16 7.168 16 16s-7.168 16-16 16zM1136 768h-384c-8.832 0-16-7.168-16-16s7.168-16 16-16h384c8.832 0 16 7.168 16 16s-7.168 16-16 16zM1136 384h-384c-8.832 0-16-7.168-16-16s7.168-16 16-16h384c8.832 0 16 7.168 16 16s-7.168 16-16 16zM1136 256h-384c-8.832 0-16-7.168-16-16s7.168-16 16-16h384c8.832 0 16 7.168 16 16s-7.168 16-16 16zM1136 128h-384c-8.832 0-16-7.168-16-16s7.168-16 16-16h384c8.832 0 16 7.168 16 16s-7.168 16-16 16z" />
<glyph unicode="&#xe00c;" glyph-name="browser" horiz-adv-x="1344" d="M1328 640c-8.832 0-16-7.168-16-16v-640c0-8.832-7.168-16-16-16h-1248c-8.832 0-16 7.168-16 16v640c0 8.832-7.168 16-16 16s-16-7.168-16-16v-640c0-26.464 21.536-48 48-48h1248c26.464 0 48 21.536 48 48v640c0 8.832-7.168 16-16 16zM1296 960h-1248c-26.464 0-48-21.536-48-48v-192c0-8.832 7.168-16 16-16h1312c8.832 0 16 7.168 16 16v192c0 26.464-21.536 48-48 48zM1312 736h-1280v176c0 8.832 7.168 16 16 16h1248c8.832 0 16-7.168 16-16v-176zM560 64c8.832 0 16 7.168 16 16v512c0 8.832-7.168 16-16 16h-416c-8.832 0-16-7.168-16-16v-512c0-8.832 7.168-16 16-16h416zM160 576h384v-480h-384v480zM720 480h480c8.832 0 16 7.168 16 16s-7.168 16-16 16h-480c-8.832 0-16-7.168-16-16s7.168-16 16-16zM720 320h480c8.832 0 16 7.168 16 16s-7.168 16-16 16h-480c-8.832 0-16-7.168-16-16s7.168-16 16-16zM720 160h480c8.832 0 16 7.168 16 16s-7.168 16-16 16h-480c-8.832 0-16-7.168-16-16s7.168-16 16-16zM96 832c0-17.673 14.327-32 32-32s32 14.327 32 32c0 17.673-14.327 32-32 32s-32-14.327-32-32zM224 832c0-17.673 14.327-32 32-32s32 14.327 32 32c0 17.673-14.327 32-32 32s-32-14.327-32-32zM352 832c0-17.673 14.327-32 32-32s32 14.327 32 32c0 17.673-14.327 32-32 32s-32-14.327-32-32z" />
<glyph unicode="&#xe00e;" glyph-name="presentation2" horiz-adv-x="992" d="M16 864c-8.832 0-16-7.168-16-16v-544c0-26.464 21.536-48 48-48h896c26.464 0 48 21.536 48 48v544c0 8.832-7.168 16-16 16s-16-7.168-16-16v-544c0-8.832-7.168-16-16-16h-896c-8.832 0-16 7.168-16 16v544c0 8.832-7.168 16-16 16zM1040 960h-1088c-8.832 0-16-7.168-16-16s7.168-16 16-16h1088c8.832 0 16 7.168 16 16s-7.168 16-16 16zM379.328 699.328c-5.856 5.856-15.2 6.272-21.568 0.992l-192-160c-6.784-5.664-7.712-15.744-2.048-22.56 5.664-6.784 15.712-7.712 22.56-2.048l180.768 150.656 181.664-181.664c3.104-3.136 7.2-4.704 11.296-4.704s8.192 1.568 11.328 4.672l228.672 228.704v-121.376c0-8.832 7.168-16 16-16s16 7.168 16 16v160c0 2.080-0.416 4.16-1.216 6.112-1.632 3.904-4.736 7.040-8.672 8.672-1.952 0.8-4.032 1.216-6.112 1.216h-160c-8.832 0-16-7.168-16-16s7.168-16 16-16h121.376l-217.376-217.376-180.672 180.704zM257.824-55.424c4.096-7.84 13.76-10.848 21.6-6.752l216.576 113.44 216.576-113.44c2.368-1.248 4.896-1.824 7.424-1.824 5.76 0 11.328 3.136 14.176 8.576 4.096 7.84 1.088 17.504-6.752 21.6l-220.576 115.52c3.136 2.912 5.152 7.008 5.152 11.648v82.656c0 8.832-7.168 16-16 16s-16-7.168-16-16v-82.656c0-4.608 2.016-8.704 5.152-11.616l-220.576-115.52c-7.84-4.128-10.848-13.792-6.752-21.632z" />
<glyph unicode="&#xe02b;" glyph-name="gears" horiz-adv-x="1344" d="M118.144 264.96c5.632-1.344 13.28-8.288 15.488-14.624l11.2-27.008c2.528-5.184 2.048-15.456-0.96-20.384l-44.704-73.088c-9.568-15.68-7.584-37.888 5.28-52.288l37.856-37.824c13.184-11.712 36.448-13.824 51.616-4.64l73.088 44.704c4.576 2.816 14.4 3.808 21.28 0.576l26.976-11.136c5.44-1.888 12.384-9.504 13.728-15.136l20.064-83.328c4.256-17.664 21.12-32.192 39.232-33.856 0 0 11.104-1.024 27.744-1.024s27.744 1.024 27.776 1.024c18.080 1.632 34.944 16.192 39.2 33.856l20.096 83.328c1.344 5.6 8.256 13.248 14.592 15.456l27.008 11.2c4.768 2.336 15.808 1.856 20.384-0.96l73.088-44.704c6.432-3.936 14.112-6.016 22.272-6.016 11.040 0 21.728 3.872 30.016 11.264l37.824 37.856c12.224 13.728 14.208 35.936 4.64 51.616l-44.704 73.088c-3.008 4.928-3.488 15.2-0.576 21.28l11.136 26.976c1.888 5.44 9.504 12.384 15.136 13.728l83.328 20.064c17.664 4.256 32.192 21.12 33.856 39.232 0 0 1.024 11.104 1.024 27.744s-1.024 27.744-1.024 27.776c-1.632 18.080-16.192 34.944-33.856 39.232l-83.296 20.032c-5.632 1.344-13.28 8.288-15.488 14.624l-11.2 27.008c-2.528 5.184-2.048 15.456 0.96 20.384l44.704 73.088c9.568 15.68 7.584 37.888-5.28 52.288l-37.856 37.824c-13.216 11.744-36.512 13.856-51.616 4.64l-73.088-44.704c-4.576-2.784-14.432-3.84-21.28-0.576l-26.976 11.136c-5.44 1.888-12.352 9.504-13.696 15.136l-20.096 83.328c-4.256 17.664-21.12 32.192-39.232 33.856-0.064-0.032-11.168 0.992-27.808 0.992s-27.744-1.024-27.776-1.024c-18.080-1.632-34.944-16.192-39.232-33.856l-20.032-83.264c-1.344-5.632-8.288-13.28-14.624-15.488l-27.008-11.2c-4.8-2.336-15.808-1.824-20.384 0.96l-73.056 44.704c-15.136 9.216-37.92 7.616-52.288-5.248l-37.824-37.856c-12.224-13.728-14.208-35.936-4.64-51.616l44.704-73.088c3.008-4.928 3.488-15.2 0.576-21.28l-11.136-26.976c-1.888-5.44-9.504-12.384-15.136-13.728l-83.328-20.064c-17.664-4.256-32.192-21.12-33.856-39.232 0.064 0-0.96-11.104-0.96-27.744s1.024-27.744 1.024-27.776c1.632-18.080 16.192-34.944 33.856-39.232l83.264-20.032zM32 352c0 14.656 0.864 24.544 0.896 24.864 0.384 4.32 5.28 9.984 9.472 11.008l83.328 20.064c16.16 3.904 32.448 18.688 37.504 33.504l10.368 25.184c7.296 14.944 6.272 36.896-2.4 51.104l-44.704 73.056c-2.144 3.552-1.536 10.592 0.576 12.992l36.512 36.544c2.912 2.592 10.336 3.232 13.664 1.216l73.088-44.704c13.856-8.48 37.6-9.056 50.176-2.816l25.216 10.432c15.712 5.408 30.496 21.696 34.4 37.888l20.032 83.296c1.024 4.224 6.688 9.12 11.008 9.504 0.32 0 10.208 0.864 24.864 0.864s24.544-0.864 24.864-0.896c4.32-0.384 9.984-5.28 11.008-9.472l20.064-83.296c3.904-16.16 18.656-32.48 33.504-37.536l25.184-10.368c14.624-7.168 37.28-6.048 51.104 2.4l73.056 44.704c3.328 2.016 11.2 0.96 12.992-0.576l36.544-36.512c2.752-3.104 3.36-10.112 1.216-13.664l-44.704-73.088c-8.672-14.176-9.696-36.16-2.816-50.176l10.432-25.216c5.408-15.712 21.696-30.496 37.888-34.4l83.296-20.032c4.224-1.024 9.12-6.688 9.504-11.008 0-0.32 0.864-10.208 0.864-24.864s-0.864-24.544-0.896-24.864c-0.384-4.32-5.28-9.984-9.472-11.008l-83.328-20.064c-16.16-3.904-32.448-18.688-37.504-33.504l-10.368-25.184c-7.296-14.944-6.272-36.896 2.4-51.104l44.704-73.056c2.144-3.552 1.536-10.592-0.576-12.992l-36.512-36.544c-1.728-1.536-4.864-2.528-8.032-2.528-2.208 0-4.256 0.48-5.6 1.312l-73.088 44.704c-13.824 8.448-37.568 9.056-50.176 2.816l-25.216-10.432c-15.712-5.408-30.496-21.728-34.368-37.888l-20.064-83.296c-1.024-4.224-6.688-9.12-11.008-9.504-0.352 0-10.24-0.864-24.896-0.864s-24.544 0.864-24.864 0.896c-4.32 0.384-9.984 5.28-11.008 9.472l-20.064 83.328c-3.904 16.16-18.688 32.448-33.504 37.504l-25.184 10.368c-6.528 3.2-14.432 4.864-22.88 4.864-10.528 0-20.544-2.592-28.224-7.296l-73.056-44.704c-3.328-2.016-11.232-0.928-12.992 0.576l-36.544 36.544c-2.752 3.104-3.36 10.112-1.216 13.664l44.704 73.088c8.672 14.176 9.696 36.16 2.816 50.176l-10.432 25.216c-5.408 15.712-21.696 30.496-37.888 34.4l-83.296 20.032c-4.224 1.024-9.12 6.688-9.504 11.008 0 0.32-0.864 10.208-0.864 24.864zM416 176c97.056 0 176 78.944 176 176s-78.944 176-176 176-176-78.944-176-176 78.944-176 176-176zM416 496c79.392 0 144-64.608 144-144s-64.608-144-144-144-144 64.608-144 144 64.608 144 144 144zM879.264 789.952c-1.28-1.952-5.92-4.416-8.288-4.416l-59.552 0.576c-14.464 0-28.96-10.272-33.696-23.872 0 0-2.624-7.456-5.504-18.88s-4.096-19.232-4.096-19.232c-2.24-14.432 5.792-30.4 18.688-37.152l52.512-27.52c2.016-1.056 4.992-5.504 5.312-8.736l2.976-20.32c0.48-2.24-1.056-7.36-2.688-8.96l-42.304-41.472c-10.592-10.368-13.376-28.096-6.080-42.016l19.168-32c8.096-11.904 25.632-17.984 39.392-13.696l58.368 17.856c3.168 0 6.336-1.216 8.128-2.656l16.48-12.16c1.92-1.28 4.448-5.984 4.416-8.288l-0.576-59.264c-0.128-14.592 10.112-29.216 23.872-34.016 0 0 7.456-2.624 18.88-5.504s19.232-4.096 19.232-4.096c0.832-0.128 4.16-0.384 4.992-0.384 13.056 0 26.304 7.84 32.16 19.072l27.52 52.512c1.056 2.016 5.504 4.992 8.736 5.312l21.216 3.072c3.2 0 6.976-1.664 8.032-2.752l41.472-42.304c10.080-10.304 27.072-13.984 42.016-6.080l31.968 19.168c12.224 8.32 18.144 25.28 13.728 39.392l-17.664 56.544c-0.672 2.176 0.384 7.424 2.496 9.952l12.16 16.48c1.28 1.952 5.92 4.416 8.288 4.416l59.552-0.576c14.464 0 28.96 10.272 33.696 23.872 0 0 2.624 7.456 5.504 18.88s4.096 19.232 4.096 19.232c2.24 14.432-5.792 30.4-18.688 37.152l-52.512 27.52c-2.016 1.056-4.992 5.504-5.312 8.736l-2.944 20.256c-0.48 2.24 1.056 7.36 2.688 8.96l42.304 41.472c10.592 10.368 13.376 28.096 6.080 42.016l-19.168 32c-8.096 11.872-25.6 18.016-39.392 13.728l-58.4-17.856c-3.168 0-6.336 1.216-8.128 2.656l-16.48 12.16c-1.92 1.28-4.448 5.984-4.416 8.288l0.576 59.264c0.128 14.592-10.112 29.216-23.872 34.016 0 0-7.456 2.624-18.88 5.504s-19.232 4.096-19.232 4.096c-0.832 0.096-4.16 0.352-4.992 0.352-13.056 0-26.304-7.84-32.16-19.072l-27.52-52.512c-1.056-2.016-5.504-4.992-8.736-5.312l-21.216-3.040c-3.2 0-6.976 1.664-8.032 2.752l-41.472 42.304c-10.048 10.272-27.008 13.984-42.016 6.080l-32-19.136c-12.224-8.32-18.144-25.28-13.728-39.392l17.664-56.544c0.672-2.176-0.384-7.424-2.496-9.952l-12.128-16.48zM905.504 771.648l10.976 14.912c8.576 10.144 11.904 26.688 7.936 39.328l-17.632 56.512c-0.16 0.896 0.544 2.912 0.384 2.944l30.336 18.176 3.616-0.544 41.504-42.304c7.36-7.488 19.488-12.352 30.88-12.352 2.624 0 5.152 0.256 6.528 0.608l18.4 2.72c13.184 1.152 27.232 10.496 33.376 22.208l27.488 52.48c0.512 0.8 2.528 1.952 3.84 1.952 0.352-0.032 6.88-1.12 16.416-3.488 9.504-2.4 15.776-4.544 16.064-4.672 0.992-0.416 2.432-2.496 2.496-3.52l-0.576-59.264c-0.128-13.248 7.84-28.128 18.144-34.848l14.88-10.976c9.888-8.352 26.848-11.872 39.328-7.936l56.768 17.664c1.344 0 2.848-0.832 2.656-0.416l18.176-30.336c0.352-0.832 0-2.944-0.544-3.616l-42.304-41.504c-9.44-9.312-14.336-25.44-11.744-37.408l2.688-18.4c1.152-13.184 10.496-27.232 22.24-33.376l52.48-27.488c0.896-0.576 2.016-2.816 1.952-3.84-0.032-0.352-1.12-6.88-3.488-16.416-2.4-9.504-4.544-15.776-4.672-16.064-0.416-0.992-2.496-2.432-3.52-2.496l-59.584 0.576c-13.152 0-27.872-7.968-34.528-18.144l-10.944-14.88c-8.576-10.144-11.904-26.688-7.936-39.328l17.632-56.512c0.16-0.864-0.544-2.912-0.384-2.944l-30.336-18.176-3.616 0.544-41.504 42.304c-7.36 7.488-19.488 12.352-30.88 12.352-2.624 0-5.152-0.256-6.528-0.608l-18.4-2.72c-13.184-1.152-27.232-10.496-33.376-22.208l-27.488-52.48c-0.512-0.8-2.528-1.952-3.84-1.952v0c-0.352 0.032-6.88 1.12-16.416 3.488-9.504 2.4-15.776 4.544-16.064 4.672-0.992 0.416-2.432 2.496-2.496 3.52l0.576 59.264c0.128 13.248-7.84 28.128-18.144 34.848l-14.88 10.976c-7.104 6.016-17.568 9.6-28 9.6-4.032 0-7.872-0.576-11.36-1.664l-56.768-17.664c-1.376 0-2.88 0.736-2.656 0.416l-18.176 30.336c-0.352 0.832 0 2.944 0.544 3.616l42.304 41.504c9.44 9.312 14.336 25.44 11.744 37.408l-2.688 18.368c-1.152 13.184-10.496 27.232-22.24 33.376l-52.48 27.488c-0.896 0.576-2.016 2.816-1.952 3.84 0.032 0.352 1.12 6.88 3.488 16.416 2.4 9.504 4.544 15.776 4.672 16.064 0.416 0.992 2.496 2.432 3.52 2.496l59.584-0.576c13.152 0 27.872 7.968 34.528 18.144zM1056 576c52.928 0 96 43.072 96 96s-43.072 96-96 96-96-43.072-96-96 43.072-96 96-96zM1056 736c35.296 0 64-28.704 64-64s-28.704-64-64-64-64 28.704-64 64 28.704 64 64 64z" />
<glyph unicode="&#xe030;" glyph-name="lightbulb" horiz-adv-x="704" d="M352 960c-169.28 0-352-134.592-352-352 0-107.296 42.688-197.568 124.672-265.984 0.864-1.088 1.856-2.016 2.944-2.816 60.832-65.984 63.904-78.528 64.32-107.552 0.192-11.488 0.096-14.88 0-16.736l-0.128-6.688c-0.48-14.464-1.216-38.688 28.768-47.84l259.008-56.992c1.152-0.256 2.304-0.384 3.424-0.384 7.36 0 13.984 5.088 15.616 12.576 1.92 8.64-3.552 17.184-12.192 19.072l-257.76 56.672c-4.96 1.504-5.376 1.632-4.928 15.936l0.096 6.112c0 0 0.32 2.496 0.064 18.752-0.608 40.608-9.44 60.224-73.888 129.888-1.248 1.536-2.752 2.816-4.416 3.776-75.392 64.096-113.6 145.568-113.6 242.208 0 197.664 166.080 320 320 320 157.312 0 320-119.712 320-320 0-127.296-61.696-197.472-112.576-241.632-1.76-0.832-3.328-2.016-4.704-3.488-65.184-70.528-74.016-90.144-74.624-130.752 0-0.96-0.032-2.080 0-3.296l-0.032-1.12c-0.096-2.432-0.448-3.776-0.416-4.288-1.088 0.16-3.744 0.576-3.744 0.576l-134.24 31.584c-8.704 1.984-17.216-3.328-19.232-11.904-2.016-8.608 3.296-17.216 11.904-19.264l132.608-31.104c1.76-0.64 17.696-5.824 31.136 3.616 5.856 4.128 12.672 12.224 13.888 27.712l0.096 1.504c0.032 1.024 0.064 2.080 0.064 3.168 0 0.288 0 0.576-0.032 0.832l0.032 1.472c0.416 28.864 3.424 41.408 64.16 107.392 0.288 0.224 0.608 0.448 0.864 0.704 85.344 71.712 126.848 159.488 126.848 268.288 0 220.32-178.976 352-352 352zM480 16c7.328 0 13.92 5.024 15.584 12.48 1.984 8.608-3.424 17.184-12.064 19.136l-256 58.048c-8.672 1.92-17.184-3.456-19.136-12.064-1.984-8.608 3.424-17.184 12.064-19.136l256-58.048c1.216-0.288 2.4-0.416 3.552-0.416zM243.488 14.272c-8.672 1.92-17.152-3.488-19.136-12.096-1.92-8.64 3.488-17.184 12.128-19.104l208-46.656c1.216-0.288 2.368-0.416 3.52-0.416 7.328 0 13.952 5.056 15.616 12.512 1.92 8.64-3.488 17.184-12.128 19.104l-208 46.656z" />
<glyph unicode="&#xe031;" glyph-name="layers2" d="M984.48 727.616l-369.376 208.48c-50.272 28.384-136.672 28.416-187.040 0l-369.376-208.48c-28.256-15.968-43.776-38.304-43.776-62.944s15.552-46.976 43.776-62.912l369.376-208.512c25.152-14.208 58.368-22.016 93.504-22.016 35.168 0 68.384 7.84 93.536 22.016l369.376 208.512c28.256 15.936 43.808 38.272 43.808 62.912s-15.584 46.976-43.808 62.944zM967.648 631.52l-369.376-208.512c-39.616-22.368-113.792-22.4-153.408 0l-369.376 208.512c-16.768 9.472-26.368 21.568-26.368 33.152 0 11.616 9.6 23.68 26.368 33.184l369.376 208.512c19.808 11.2 47.776 17.6 76.672 17.6 28.928 0 56.896-6.432 76.704-17.6l369.376-208.512c16.768-9.472 26.4-21.568 26.4-33.184 0.032-11.584-9.568-23.68-26.368-33.152zM984.48 508.832c-8.192 4.64-18.624 1.76-23.328-6.496-4.64-8.224-1.728-18.656 6.496-23.296 16.768-9.472 26.4-21.568 26.4-33.152s-9.632-23.68-26.4-33.152l-369.376-208.512c-41.536-23.456-111.808-23.488-153.408 0l-369.376 208.512c-16.768 9.472-26.368 21.568-26.368 33.152s9.6 23.68 26.368 33.152c8.224 4.64 11.136 15.072 6.496 23.296-4.672 8.256-15.136 11.168-23.328 6.496-28.256-15.936-43.776-38.304-43.776-62.944s15.52-47.008 43.776-62.944l369.376-208.512c26.208-14.784 59.872-22.208 93.504-22.208 33.664 0 67.328 7.392 93.536 22.208l369.376 208.512c28.256 15.936 43.808 38.304 43.808 62.944s-15.552 47.008-43.776 62.944zM984.48 294.272c-8.192 4.64-18.624 1.76-23.328-6.496-4.64-8.224-1.728-18.656 6.496-23.296 16.768-9.472 26.4-21.568 26.4-33.152s-9.632-23.68-26.4-33.184l-369.376-208.512c-41.536-23.456-111.808-23.488-153.408 0l-369.376 208.544c-16.768 9.472-26.368 21.568-26.368 33.184 0 11.584 9.6 23.68 26.368 33.152 8.224 4.64 11.136 15.072 6.496 23.296-4.672 8.224-15.136 11.168-23.328 6.496-28.192-15.968-43.744-38.304-43.744-62.976s15.52-47.008 43.776-62.944l369.376-208.512c26.208-14.784 59.872-22.208 93.504-22.208 33.664 0 67.328 7.392 93.536 22.208l369.376 208.512c28.256 15.968 43.808 38.304 43.808 62.944s-15.584 47.008-43.808 62.944z" />
<glyph unicode="&#xe033;" glyph-name="tools2" horiz-adv-x="992" d="M6.752 779.328c-27.104-27.136-21.312-65.344 0.256-86.88 0.864-0.832 87.488-83.584 209.312-205.408 3.136-3.136 7.232-4.672 11.328-4.672s8.192 1.568 11.328 4.672c6.24 6.24 6.24 16.384 0 22.624-18.368 18.368-35.84 35.744-52.416 52.192l50.848 50.848c6.24 6.24 6.24 16.384 0 22.624s-16.384 6.24-22.624 0l-50.976-50.976c-28.512 28.16-53.632 52.736-74.080 72.672l115.68 115.68c6.24 6.24 6.24 16.384 0 22.624s-16.384 6.24-22.624 0l-116.032-116.032c-23.552 22.816-37.12 35.776-37.344 36-6.752 6.752-15.616 25.76 0 41.376l160 160c6.176 6.272 22.624 18.72 40.672 0.768 0.8-0.896 81.6-92.672 204.928-216 6.24-6.24 16.384-6.24 22.624 0s6.24 16.384 0 22.624c-122.56 122.528-202.752 213.6-204.224 215.264-29.824 29.76-65.792 20.832-86.624 0l-160.032-160zM685.408 187.328c-6.24 6.24-16.384 6.24-22.624 0l-50.912-50.88c-15.52 15.712-31.808 32.16-48.96 49.312-6.24 6.24-16.384 6.24-22.624 0s-6.24-16.384 0-22.624c118.528-118.496 201.312-207.008 202.496-208.288 10.976-11.008 26.016-17.056 42.336-17.056v0c16.8 0 33.792 6.56 44.32 17.12l159.936 161.824c20.128 20.128 21.28 54.272 2.496 73.12l-214.592 214.56c-6.24 6.24-16.384 6.24-22.624 0s-6.24-16.384 0-22.624l214.592-214.56c6.4-6.4 5.184-20.224-2.528-27.936l-159.968-161.824c-3.68-3.712-12.032-7.68-21.632-7.68 0 0 0 0 0 0-5.504 0-13.376 1.344-19.328 7.328-0.32 0.352-13.728 14.656-36.992 39.008l116.608 116.608c6.24 6.24 6.24 16.384 0 22.624s-16.384 6.24-22.624 0l-116.128-116.128c-19.968 20.768-44.448 46.016-72.32 74.432l51.072 51.072c6.24 6.208 6.24 16.32 0 22.592zM-9.376-58.528c3.072-3.136 7.2-4.8 11.456-4.8 1.536 0 3.072 0.224 4.576 0.672l320 95.328c2.592 0.768 4.896 2.144 6.784 4.064l546.88 550.56c0.768 0.768 1.152 1.76 1.728 2.624l116.992 116.992c9.408 9.44 14.624 21.952 14.624 35.296 0 13.312-5.216 25.824-14.624 35.2l-167.52 167.488c-18.816 18.816-51.68 18.816-70.496 0l-119.648-119.648c-0.768-0.768-1.184-1.76-1.76-2.656l-547.712-547.744c-1.792-1.792-3.136-3.968-3.904-6.368l-101.12-310.88c-1.856-5.664-0.416-11.84 3.744-16.128zM653.6 791.328l33.248-33.248-496.736-498.080-55.264 12.544 518.752 518.784zM210.080 234.688l499.424 500.736 77.952-77.952-503.936-497.472h-73.44v74.688zM846.368 598.528l-519.808-523.328-18.464 64.064 501.984 495.584 36.288-36.32zM113.856 244.512l64.224-14.592v-85.92c0-8.832 7.168-16 16-16h83.968l20.288-70.4-271.616-80.928 87.136 267.84zM783.68 922.272c6.752 6.752 18.496 6.752 25.248 0l167.52-167.52c3.36-3.36 5.216-7.84 5.216-12.608 0-4.736-1.856-9.248-5.248-12.64l-107.872-107.904-192.736 192.736 107.872 107.936z" />
<glyph unicode="&#xe051;" glyph-name="speedometer" d="M512 961.088c-282.912 0-513.12-230.144-513.12-513.088s230.208-513.088 513.12-513.088 513.12 230.144 513.12 513.088-230.208 513.088-513.12 513.088zM512-30.912c-264.064 0-478.88 214.848-478.88 478.912s214.816 478.912 478.88 478.912 478.88-214.848 478.88-478.912-214.816-478.912-478.88-478.912zM528 766.304c9.76 0 17.696 7.904 17.696 17.696v64c0 9.792-7.936 17.696-17.696 17.696s-17.696-7.904-17.696-17.696v-64c0-9.792 7.936-17.696 17.696-17.696zM176 481.696h-64c-9.76 0-17.696-7.904-17.696-17.696s7.936-17.696 17.696-17.696h64c9.76 0 17.696 7.904 17.696 17.696s-7.936 17.696-17.696 17.696zM830.304 464c0-9.792 7.936-17.696 17.696-17.696h64c9.76 0 17.696 7.904 17.696 17.696s-7.936 17.696-17.696 17.696h-64c-9.76 0-17.696-7.904-17.696-17.696zM274.4 635.904c4.544 0 9.056 1.728 12.512 5.184 6.912 6.912 6.912 18.080 0 24.992l-50.4 50.432c-6.912 6.944-18.080 6.944-24.992 0-6.912-6.912-6.912-18.080 0-24.992l50.4-50.4c3.424-3.488 7.968-5.216 12.48-5.216zM764.512 284.512c-6.912 6.944-18.080 6.944-24.992 0-6.912-6.912-6.912-18.080 0-24.992l48-48c3.456-3.456 7.968-5.184 12.512-5.184s9.056 1.728 12.512 5.184c6.912 6.912 6.912 18.080 0 24.992l-48.032 48zM796.512 707.488c6.912 6.912 6.912 18.080 0 24.992-6.912 6.944-18.080 6.944-24.992 0l-50.4-50.4c-6.912-6.912-6.912-18.080 0-24.992 3.456-3.456 7.968-5.184 12.512-5.184s9.056 1.728 12.512 5.184l50.368 50.4zM275.488 268.512l-48-48c-6.912-6.912-6.912-18.080 0-24.992 3.456-3.456 7.968-5.184 12.512-5.184s9.056 1.728 12.512 5.184l48 48c6.912 6.912 6.912 18.080 0 24.992s-18.112 6.912-25.024 0zM624 192h-224c-28.448 1.088-49.12-19.552-49.12-48v-30.624c0-28.736 21.568-51.296 49.12-49.376h224c27.52-1.92 49.12 20.64 49.12 49.376v30.624c0 28.448-20.672 49.088-49.12 48zM638.88 113.376c0-8.224-4.672-17.088-14.88-18.176h-224c-10.24 1.088-14.88 9.984-14.88 0.8v30.624c0 26.848 5.408 32.288 14.88 33.376h224c9.472-1.088 14.88-6.528 14.88-16v-30.624zM512 362.656c22.784 0 44.224 8.864 60.32 24.992 29.152 29.152 32.768 74.24 10.88 107.36l84.896 84.896c6.656 6.688 6.656 17.504 0 24.192-6.688 6.688-17.504 6.688-24.192 0l-84.992-84.992c-32.8 20.96-79.136 17.376-107.232-10.752-33.28-33.28-33.28-87.392 0-120.672 16.096-16.16 37.536-25.024 60.32-25.024zM481.856 478.144c8.032 8.064 18.752 12.512 30.144 12.512s22.112-4.448 30.176-12.512c16.64-16.64 16.64-43.68 0-60.32-16.096-16.128-44.192-16.128-60.32 0-16.64 16.64-16.64 43.712 0 60.32z" />
<glyph unicode="&#xe053;" glyph-name="compass3" d="M0 448c0-282.304 229.696-512 512-512s512 229.696 512 512-229.696 512-512 512-512-229.696-512-512zM512 928c264.672 0 480-215.328 480-480s-215.328-480-480-480-480 215.328-480 480 215.328 480 480 480zM512 32c229.376 0 416 186.624 416 416s-186.624 416-416 416-416-186.624-416-416 186.624-416 416-416zM480 830.368v-48.832c0-8.832 7.168-16 16-16s16 7.168 16 16v50.464c200.928 0 366.016-155.2 382.368-352h-48.864c-8.832 0-16-7.168-16-16s7.168-16 16-16h50.496c0-211.744-172.256-384-384-384v50.464c0 8.832-7.168 16-16 16s-16-7.168-16-16v-48.832c-196.768 16.352-352 181.408-352 382.368h50.496c8.832 0 16 7.168 16 16s-7.168 16-16 16h-48.864c15.456 186.208 164.16 334.912 350.368 350.368zM300.352 222.688c3.264 0 6.528 0.992 9.344 3.008l179.648 129.152c7.296-1.792 14.816-2.976 22.656-2.976 52.928 0 96 43.072 96 96 0 7.584-1.12 14.88-2.784 21.984l131.392 182.784c4.576 6.368 3.872 15.136-1.664 20.672-5.504 5.536-14.272 6.176-20.672 1.696l-184.896-132.896c-5.664 1.056-11.456 1.76-17.408 1.76-52.928 0-96-43.072-96-96 0-6.24 0.704-12.352 1.856-18.272l-130.464-181.568c-4.576-6.368-3.872-15.136 1.664-20.672 3.104-3.072 7.2-4.672 11.328-4.672zM448 447.84c0 35.296 28.704 64 64 64s64-28.704 64-64-28.704-64-64-64-64 28.736-64 64zM653.568 591.904l-63.584-88.48c-6.912 9.632-15.424 18.016-25.344 24.544l88.928 63.936zM432.16 394.656c6.368-9.536 14.528-17.696 23.776-24.416l-85.504-61.472 61.728 85.888z" />
<glyph unicode="&#xe600;" glyph-name="account" d="M768 704c0-141.376-114.624-256-256-256s-256 114.624-256 256c0 141.376 114.624 256 256 256s256-114.624 256-256zM512 370.56c280.96 0 509.12-194.176 512-434.56h-1024c2.88 240.384 231.040 434.56 512 434.56v0z" />
<glyph unicode="&#xe601;" glyph-name="add2" d="M512 960c-282.784 0-512-229.216-512-512s229.216-512 512-512 512 229.216 512 512c0 282.784-229.216 512-512 512zM768 424.736h-232.736v-232.736h-46.528v232.736h-232.736v46.528h232.736v232.736h46.528v-232.736h232.736v-46.56z" />
<glyph unicode="&#xe602;" glyph-name="alert" d="M1024 75.936c0-17.344-6.176-32.352-18.496-44.992s-27.488-19.008-45.504-19.008h-896c-18.016 0-33.184 6.336-45.504 19.008-12.352 12.672-18.496 27.68-18.496 44.992 0 11.328 3.008 21.984 8.992 32l439.008 736c5.312 12 9.152 20 11.488 24s6.336 10.144 12 18.496 11.68 14.016 18.016 16.992c6.336 2.976 13.824 4.48 22.496 4.512 11.328 0 21.152-3.36 29.504-10.016s14.688-13.856 19.008-21.504 9.504-18.496 15.488-32.512l439.008-736c5.984-10.016 8.992-20.672 8.992-32v0.032zM576 587.936c0 18.016-6.176 33.184-18.496 45.504s-27.488 18.496-45.504 18.496-33.184-6.176-45.504-18.496c-12.32-12.32-18.496-27.488-18.496-45.504v-192c0-17.344 6.336-32.352 19.008-44.992s27.68-18.976 44.992-19.008c17.312-0.032 32.32 6.304 44.992 19.008s19.008 27.712 19.008 44.992v192zM511.488 267.936c-17.664 0-32.672-6.176-44.992-18.496-12.352-12.352-18.496-27.328-18.496-44.992s6.336-32.832 19.008-45.504c12.672-12.672 27.68-19.008 44.992-19.008s32.32 6.336 44.992 19.008c12.672 12.672 19.008 27.84 19.008 45.504s-6.336 32.672-19.008 44.992c-12.672 12.352-27.84 18.496-45.504 18.496z" />
<glyph unicode="&#xe603;" glyph-name="arrow-left" d="M387.136 865.44l-365.728-365.728c-28.576-28.576-28.576-74.848 0-103.424l365.728-365.728c28.576-28.576 74.848-28.576 103.424 0s28.576 74.848 0 103.424l-240.864 240.864h701.152c40.416 0 73.152 32.736 73.152 73.152s-32.736 73.152-73.152 73.152h-701.152l240.864 240.864c14.272 14.304 21.44 32.992 21.44 51.712s-7.136 37.44-21.44 51.712c-28.544 28.544-74.848 28.544-103.424 0z" />
<glyph unicode="&#xe604;" glyph-name="arrow-right" d="M636.864 30.56l365.728 365.728c28.576 28.576 28.576 74.848 0 103.424l-365.728 365.728c-28.576 28.576-74.848 28.576-103.424 0s-28.576-74.848 0-103.424l240.864-240.864h-701.152c-40.416 0-73.152-32.736-73.152-73.152s32.736-73.152 73.152-73.152h701.152l-240.864-240.864c-14.272-14.24-21.44-32.992-21.44-51.712s7.136-37.44 21.44-51.712c28.544-28.544 74.848-28.544 103.424 0z" />
<glyph unicode="&#xe605;" glyph-name="attachment2" d="M420.16 88.448l525.92 511.872 45.92-44.992-525.92-510.016v-0.928c-0.64-0.64-0.928-0.8-0.928-0.48s0 0.128 0-0.48c-25.632-24.992-54.272-43.584-85.792-55.776-31.584-12.224-63.616-18.752-96.096-19.68s-64.384 4.672-95.616 16.864c-31.232 12.192-59.040 29.824-83.456 52.96-24.352 23.744-42.464 50.464-54.368 80.16s-17.824 60.48-17.824 92.352 6.24 62.816 18.752 92.832c12.48 29.984 31.232 57.792 56.224 83.424v0c0.64 0 0.928 0.16 0.928 0.48s0.16 0.48 0.48 0.48c0.288 0 0.48 0.288 0.48 0.928s0.288 0.64 0.928 0c0 0.64 0 0.768 0 0.48s0-0.288 0 0 0.128 0.48 0.128 0.48c0.64 0 0.8 0.288 0.8 0.928l496 480.928v0.96c0-0.64 0.128-0.64 0.48 0 0.288 0.608 0.608 0.928 0.928 0.928 0 0 0.48 0.288 0.48 0.928s0.288 0.608 0.928 0c17.472 18.112 37.472 31.392 60 39.84 22.496 8.448 45.312 13.12 68.416 14.048s45.792-2.944 67.968-11.712c22.176-8.768 42.048-21.28 59.52-37.504 8.128-12.512 15.936-28.928 23.456-49.216s12.192-42.528 14.048-66.528c1.888-24.096 0-47.68-5.632-70.784s-17.472-43.744-35.616-61.888v0.928l-3.744-4.704-46.88-44.992-451.904-432.192c0 0.64 0 0.768 0 0.48s0-0.288 0 0 0 0.288 0 0 0-0.16 0 0.48c0-0.64 0-0.768 0-0.48s0 0.288 0 0 0-0.288 0 0 0 0.16 0-0.48h-0.928v-0.928c-10.624-9.376-22.496-16.864-35.616-22.496s-26.56-8.576-40.32-8.928c-13.76-0.288-27.040 1.696-39.84 6.112-12.832 4.352-24.576 11.872-35.168 22.528-9.984 9.376-17.344 20.288-22.048 32.768-4.672 12.512-6.528 24.864-5.6 37.056s4.192 24.512 9.824 37.056c5.632 12.48 13.76 23.712 24.384 33.76 0 0.608 0 0.768 0 0.48 0-0.32 0.128-0.16 0.448 0.48 0.32 0.608 0.48 0.768 0.48 0.48 0-0.32 0-0.16 0 0.48 0-0.64 0-0.8 0-0.48s0 0.288 0 0 0-0.32 0 0 0 0.128 0-0.48v0.928l41.28 43.104 331.872 324.32 45.92-44.992-377.792-366.56c-0.64-0.608-0.928-0.768-0.928-0.48 0 0.32 0 0.16 0-0.48 0-0.608-0.16-0.768-0.48-0.48-0.32 0.32-0.48 0.16-0.48-0.48-3.744-3.712-6.592-8.128-8.416-13.12-1.888-4.992-2.816-9.696-2.816-14.048s0.928-9.056 2.816-14.048c1.856-4.992 4.672-9.056 8.416-12.192 4.352-4.384 9.056-7.36 14.048-8.928 4.992-1.536 9.984-2.496 15.008-2.784 4.992-0.32 10.176 0.608 15.456 2.784s10.176 4.832 14.528 8c0 0.608 0 0.768 0 0.48 0-0.32 0-0.32 0 0 0 0.288 0 0.288 0 0 0-0.32 0-0.16 0 0.48l1.888 1.888 0.928 1.888 1.888-2.816 404.992 394.688 43.136 40.288 46.88 46.88 3.712 2.816c11.264 11.872 18.912 24.864 22.976 38.912s5.632 28.416 4.704 43.104c-0.928 14.656-3.936 28.576-8.928 41.696s-10.624 24.992-16.864 35.648c-11.232 9.984-23.904 17.664-37.952 22.976s-28.448 7.776-43.136 7.488c-14.656-0.288-29.056-3.136-43.104-8.416-14.048-5.344-27.040-13.6-38.88-24.864l-499.712-484.672c0-0.64-0.16-0.928-0.48-0.928s-0.48-0.32-0.48-0.928c0-0.64-0.16-0.8-0.48-0.48s-0.48 0.128-0.48-0.48l-0.928-0.928c-0.608-0.64-0.928-0.64-0.928 0-20-21.248-34.816-42.976-44.512-65.152s-14.528-44.864-14.528-67.936c0-23.136 4.832-45.344 14.528-66.56 9.696-21.28 24.224-41.28 43.584-60 18.144-16.864 38.752-29.856 61.92-38.912 23.072-9.056 46.72-13.28 70.752-12.64 24.064 0.608 47.808 5.472 71.264 14.528 23.424 9.056 44.512 22.656 63.296 40.768 0.608 0.64 1.088 0.928 1.088 0.928 0.608-0.064 0.8 0.256 0.8 0.896z" />
<glyph unicode="&#xe606;" glyph-name="barcode" d="M0 832h128v-640h-128zM192 832h64v-640h-64zM320 832h64v-640h-64zM512 832h64v-640h-64zM768 832h64v-640h-64zM960 832h64v-640h-64zM640 832h32v-640h-32zM448 832h32v-640h-32zM864 832h32v-640h-32zM0 128h64v-64h-64zM192 128h64v-64h-64zM320 128h64v-64h-64zM640 128h64v-64h-64zM960 128h64v-64h-64zM768 128h128v-64h-128zM448 128h128v-64h-128z" />
<glyph unicode="&#xe607;" glyph-name="briefcase" d="M365.728 813.728h292.576v73.152h-292.576v-73.152zM1024 448v-274.272q0-37.728-26.848-64.576t-64.576-26.848h-841.152q-37.728 0-64.576 26.848t-26.848 64.576v274.272h384v-91.424q0-14.848 10.848-25.728t25.728-10.848h182.848q14.848 0 25.728 10.848t10.848 25.728v91.424h384zM585.152 448v-73.152h-146.272v73.152h146.272zM1024 722.272v-219.424h-1024v219.424q0 37.728 26.848 64.576t64.576 26.848h201.152v91.424q0 22.848 16 38.848t38.848 16h329.152q22.848 0 38.848-16t16-38.848v-91.424h201.152q37.728 0 64.576-26.848t26.848-64.576z" />
<glyph unicode="&#xe608;" glyph-name="calendar" d="M910.208 846.208h-51.2v-113.792h-182.048v113.792h-329.952v-113.792h-182.016v113.792h-51.2c-62.592 0-113.792-51.2-113.792-113.76v-682.656c0-62.592 51.2-113.792 113.792-113.792h796.448c62.56 0 113.76 51.2 113.76 113.792v682.656c0 62.56-51.2 113.76-113.792 113.76zM910.208 49.792h-796.416v455.104h796.448v-455.104zM295.808 960h-79.616v-193.408h79.648c-0.032 0-0.032 193.408-0.032 193.408zM807.808 960h-79.648v-193.408h79.648c0 0 0 193.408 0 193.408z" />
<glyph unicode="&#xe609;" glyph-name="camera2" d="M657.056 608.352c-105.376 0-190.816-85.408-190.816-190.816s85.44-190.816 190.816-190.816c105.376 0 190.816 85.44 190.816 190.816 0.032 105.376-85.408 190.816-190.816 190.816zM657.056 305.568c-61.824 0-111.968 50.112-111.968 111.968s50.112 111.968 111.968 111.968c61.824 0 111.968-50.112 111.968-111.968s-50.112-111.968-111.968-111.968zM361.248 768.992l-53.44 61.44h-156.832l-53.44-61.44h-97.536v-669.312h1024v669.312h-662.752zM321.728 635.328h-145.76c-17.248 0-31.2 13.984-31.2 31.2s13.984 31.2 31.2 31.2h145.76c17.248 0 31.2-13.984 31.2-31.2s-13.984-31.2-31.2-31.2zM657.056 168.256c-137.472 0-249.312 111.84-249.312 249.312s111.84 249.312 249.312 249.312 249.312-111.84 249.312-249.312c0-137.472-111.84-249.312-249.312-249.312zM970.688 657.408c0-9.152-7.392-16.544-16.544-16.544h-38.432c-9.152 0-16.544 7.392-16.544 16.544v38.432c0 9.152 7.392 16.544 16.544 16.544h38.432c9.152 0 16.544-7.392 16.544-16.544v-38.432z" />
<glyph unicode="&#xe60a;" glyph-name="cards" d="M0 848v-800h1024v800c0 0-1024 0-1024 0zM960 112h-896v672h896v-672zM448 720h-320v-544h352v544h-32zM544 688c0-17.664 14.336-32 32-32h288c17.664 0 32 14.336 32 32v0c0 17.664-14.336 32-32 32h-288c-17.664 0-32-14.336-32-32zM544 592c0-17.664 14.336-32 32-32h288c17.664 0 32 14.336 32 32v0c0 17.664-14.336 32-32 32h-288c-17.664 0-32-14.336-32-32zM544 496c0-17.664 14.336-32 32-32h288c17.664 0 32 14.336 32 32v0c0 17.664-14.336 32-32 32h-288c-17.664 0-32-14.336-32-32zM544 400c0-17.664 14.336-32 32-32h288c17.664 0 32 14.336 32 32v0c0 17.664-14.336 32-32 32h-288c-17.664 0-32-14.336-32-32zM544 304c0-17.664 14.336-32 32-32h288c17.664 0 32 14.336 32 32v0c0 17.664-14.336 32-32 32h-288c-17.664 0-32-14.336-32-32zM544 208c0-17.664 14.336-32 32-32h288c17.664 0 32 14.336 32 32v0c0 17.664-14.336 32-32 32h-288c-17.664 0-32-14.336-32-32z" />
<glyph unicode="&#xe60b;" glyph-name="cart" d="M170.688 49.792c0-62.816 51.008-113.792 113.792-113.792 62.848 0 113.792 50.976 113.792 113.792s-50.912 113.792-113.792 113.792c-62.784-0.032-113.792-51.008-113.792-113.792zM739.584 49.792c0-62.784 50.976-113.792 113.792-113.792s113.792 50.976 113.792 113.792-50.912 113.792-113.792 113.792c-62.784-0.032-113.792-51.008-113.792-113.792zM372.48 318.752l629.696 179.872c12 3.488 21.824 16.512 21.824 29.024v312.896h-802.144v96.704c0 12.512-10.144 22.752-22.752 22.752h-176.352c-12.512 0-22.752-10.24-22.752-22.752v-91.008h110.528l111.968-515.232 10.816-53.664v-85.344c0-12.512 10.24-22.752 22.688-22.752h745.312c12.448 0 22.688 10.24 22.688 22.752v85.344h-639.904c-65.344 0-66.752 25.6-11.648 41.408h0.032z" />
<glyph unicode="&#xe60c;" glyph-name="center-align" d="M85.344 746.656h853.344v-85.344h-853.344c0 0.032 0 85.344 0 85.344zM85.344 234.656h853.344v-85.344h-853.344c0 0.032 0 85.344 0 85.344zM0 576h1024v-85.344h-1024c0 0 0 85.344 0 85.344zM128 405.344h768v-85.344h-768v85.344z" />
<glyph unicode="&#xe60d;" glyph-name="chat-bubbles" d="M296.96 348.16v317.44h-194.56c-56.32 0-102.4-46.080-102.4-102.4v-307.2c0-56.32 46.080-102.4 102.4-102.4h51.2v-153.6l153.6 153.6h256c56.32 0 102.4 46.080 102.4 102.4v93.184c-3.264-0.704-6.752-1.088-10.24-1.088h-358.4zM921.6 921.6h-460.8c-56.32 0-102.4-46.080-102.4-102.4v-409.6h358.4l153.6-153.6v153.6h51.2c56.32 0 102.4 46.080 102.4 102.4v307.2c0 56.32-46.080 102.4-102.4 102.4z" />
<glyph unicode="&#xe60e;" glyph-name="chat2" d="M296.96 335.36v317.44h-194.56c-56.32 0-102.4-46.080-102.4-102.4v-307.2c0-56.32 46.080-102.4 102.4-102.4h51.2v-153.6l153.6 153.6h256c56.32 0 102.4 46.080 102.4 102.4v93.184c-3.264-0.704-6.752-1.088-10.24-1.088h-358.4zM921.6 908.8h-460.8c-56.32 0-102.4-46.080-102.4-102.4v-409.6h358.4l153.6-153.6v153.6h51.2c56.32 0 102.4 46.080 102.4 102.4v307.2c0 56.32-46.080 102.4-102.4 102.4z" />
<glyph unicode="&#xe60f;" glyph-name="check-box2" d="M512 960c-282.752 0-512-229.248-512-512s229.248-512 512-512 512 229.248 512 512-229.248 512-512 512zM458.944 234.944l-207.616 207.616 79.744 79.744 127.84-127.904 271.168 271.2 79.744-79.744-350.88-350.912z" />
<glyph unicode="&#xe610;" glyph-name="checkmark" d="M380.64 53.184l-380.64 380.672 146.208 146.208 234.368-234.464 497.216 497.216 146.208-146.208z" />
<glyph unicode="&#xe611;" glyph-name="close-rounded" d="M1001.632 67.584c29.856-30.208 29.856-78.88 0-108.928-29.856-30.208-78.048-30.208-107.84 0l-426.304 434.88c-29.856 30.208-29.856 78.88 0 108.928l426.304 435.008c29.856 30.048 78.048 30.048 107.84 0 29.856-30.208 29.856-78.816 0-108.928l-349.504-380.48 349.504-380.48zM22.368 828.416c-29.824 30.208-29.824 78.88 0 108.928 29.856 30.208 78.048 30.208 107.84 0l426.304-434.848c29.824-30.208 29.824-78.88 0-108.928l-426.304-435.040c-29.856-30.048-78.048-30.048-107.84 0-29.824 30.208-29.824 78.816 0 108.928l349.504 380.48-349.504 380.48z" />
<glyph unicode="&#xe612;" glyph-name="close-x" d="M43.36 960l980.672-980.672-43.328-43.328-980.672 980.672 43.328 43.328zM980.64 960l43.328-43.328-980.672-980.672-43.328 43.328 980.672 980.672z" />
<glyph unicode="&#xe613;" glyph-name="close2" d="M512 960c-282.784 0-512-229.216-512-512s229.216-512 512-512 512 229.216 512 512c0 282.784-229.216 512-512 512zM770.208 267.36c21.44-21.408 21.44-56.128 0-77.568-10.72-10.72-24.736-16.064-38.784-16.064s-28.064 5.344-38.784 16.064l-180.672 180.64-180.64-180.64c-10.72-10.72-24.736-16.064-38.784-16.064s-28.064 5.344-38.784 16.064c-21.44 21.44-21.44 56.16 0 77.568l180.64 180.64-180.64 180.64c-21.44 21.408-21.44 56.128 0 77.568s56.128 21.44 77.568 0l180.64-180.64 180.64 180.64c21.408 21.44 56.128 21.44 77.568 0s21.44-56.16 0-77.568l-180.64-180.64 180.64-180.64z" />
<glyph unicode="&#xe614;" glyph-name="close22" d="M1014.656 137.344c0 0 0 0 0 0l-310.656 310.656 310.656 310.656c0 0 0 0 0 0 3.36 3.36 5.76 7.264 7.328 11.424 4.256 11.392 1.824 24.672-7.328 33.824l-146.752 146.752c-9.152 9.152-22.464 11.552-33.824 7.328-4.16-1.536-8.064-3.968-11.424-7.296 0 0 0 0 0 0l-310.656-310.656-310.656 310.656c0 0 0 0 0 0-3.36 3.328-7.264 5.76-11.424 7.296-11.392 4.256-24.672 1.824-33.824-7.328l-146.752-146.752c-9.152-9.152-11.552-22.464-7.328-33.824 1.568-4.16 3.968-8.064 7.328-11.424 0 0 0 0 0 0l310.656-310.656-310.656-310.656c0 0 0 0 0 0-3.328-3.36-5.76-7.264-7.328-11.424-4.256-11.36-1.824-24.672 7.328-33.824l146.752-146.752c9.152-9.152 22.464-11.552 33.824-7.328 4.16 1.568 8.064 3.968 11.424 7.328 0 0 0 0 0 0l310.656 310.656 310.656-310.656c0 0 0 0 0 0 3.36-3.36 7.264-5.76 11.424-7.328 11.392-4.256 24.672-1.824 33.824 7.328l146.752 146.752c9.152 9.152 11.584 22.464 7.328 33.824-1.568 4.16-3.968 8.064-7.328 11.424z" />
<glyph unicode="&#xe615;" glyph-name="cog" d="M925.504 448.064c0 63.872 39.296 114.272 98.432 148.896-10.752 35.584-24.768 69.792-42.144 101.888-66.432-17.376-120.128 8.64-165.248 53.76-45.216 45.184-59.040 98.912-41.664 165.248-32.096 17.376-66.208 31.584-101.888 42.176-34.624-59.2-97.216-98.496-161.024-98.496s-126.368 39.296-161.024 98.496c-35.744-10.592-69.792-24.8-101.888-42.144 17.28-66.368 3.52-120.128-41.632-165.28-45.184-45.088-98.944-71.136-165.248-53.824-17.376-32.064-31.52-66.24-42.176-101.856 59.2-34.624 98.496-85.024 98.496-148.896 0-63.808-39.296-126.4-98.496-161.088 10.656-35.648 24.8-69.792 42.176-101.888 66.368 17.376 120.064 3.552 165.248-41.632s58.944-98.848 41.632-165.248c32.096-17.376 66.24-31.584 101.888-42.176 34.656 59.232 97.216 98.496 161.024 98.496s126.464-39.296 161.088-98.496c35.744 10.656 69.792 24.8 101.888 42.176-17.376 66.368-3.584 120.064 41.664 165.248 45.088 45.088 98.816 71.104 165.248 53.824 17.376 32.096 31.456 66.24 42.144 101.888-59.2 34.656-98.496 85.088-98.496 148.896v0.032zM511.968 225.408c-122.912 0-222.56 99.712-222.56 222.656s99.648 222.656 222.56 222.656c123.008 0 222.656-99.712 222.656-222.656s-99.648-222.656-222.656-222.656z" />
<glyph unicode="&#xe616;" glyph-name="color-picker" d="M533.056-15.072l340.832 340.896c-31.136-98.112-76.192-246.624-76.192-284.64 0-58.080 47.072-105.152 105.152-105.152 58.144 0 105.216 47.072 105.216 105.152 0 47.264-69.664 265.376-95.584 345.056 0.256 2.688 0.416 5.312 0.416 7.872-0.16 19.904-5.824 39.68-14.752 61.216-27.104 64-87.104 145.536-167.68 226.432-53.696 53.696-108.256 98.304-157.216 130.048-24.544 15.904-47.68 28.608-69.184 37.664-8.992 3.712-17.696 6.848-26.176 9.248-14.656 13.696-29.024 26.4-43.008 37.856-22.688 18.528-44.64 33.952-67.2 45.184-22.464 11.2-45.824 18.24-70.176 18.24-35.776 0.256-70.368-16.416-99.52-46.048-27.84-27.36-42.752-61.472-42.496-96 0.032-31.648 11.040-61.952 27.712-91.616 10.336-18.304 23.008-36.576 37.408-55.040l-186.944-186.944c-13.376-13.312-17.792-31.232-17.696-46.912 0.16-19.904 5.824-39.68 14.752-61.216 27.104-64.064 87.104-145.536 167.712-226.432 53.76-53.696 108.256-98.304 157.28-130.112 24.544-15.904 47.68-28.608 69.184-37.664 21.6-8.96 41.376-14.656 61.216-14.752 0.192 0 0.448 0 0.448 0 15.68 0.064 33.248 4.512 46.4 17.696l0.096-0.032zM237.056 756.576c-13.568 24.032-19.84 44.672-19.808 61.312 0.32 18.048 5.824 33.344 24.384 52.32 22.048 21.632 38.56 27.744 55.872 27.936 12.032 0.064 25.984-3.552 42.56-11.776 17.088-8.288 36.064-21.664 56.96-38.88-0.32-0.32-0.672-0.608-1.024-0.928-0.064-0.064-0.16-0.096-0.16-0.16l-131.136-131.136c-11.008 14.496-20.384 28.288-27.68 41.312h0.032zM726.016 273.12c-0.672-0.16-1.952-0.416-4.064-0.352-6.752-0.16-20.416 2.784-37.344 9.92-51.328 21.344-130.432 77.952-206.656 154.432-50.976 50.976-93.184 102.752-121.888 147.136-14.4 22.176-25.376 42.496-32.512 59.488-7.2 16.896-10.080 30.624-9.984 37.376 0 2.016 0.192 3.36 0.352 4l70.080 70.080c1.504-4.256 3.136-8.544 4.992-12.928 27.104-64 87.104-145.536 167.68-226.432 53.76-53.696 108.256-98.304 157.28-130.112 24.544-15.84 47.68-28.608 69.152-37.664 4.384-1.792 8.64-3.456 12.928-4.992l-69.952-70.080-0.064 0.128zM680.576 486.208c-24.96 20.512-50.72 43.84-76.256 69.408-50.976 50.976-93.184 102.752-121.888 147.136-14.4 22.176-25.376 42.56-32.512 59.488-7.136 16.864-10.080 30.624-9.92 37.312 0 1.088 0.064 1.952 0.16 2.688 0.672 0.096 1.6 0.16 2.688 0.16 6.752 0.16 20.416-2.784 37.344-9.984 51.328-21.312 130.432-77.952 206.656-154.4 50.976-50.976 93.184-102.752 121.888-147.2 1.024-1.536 1.952-3.040 2.944-4.64l-131.104 0.032z" />
<glyph unicode="&#xe617;" glyph-name="compass" d="M511.968 960c-282.784-0.032-511.904-229.216-511.968-512.032 0.064-282.72 229.184-511.904 511.968-511.968 282.784 0.064 512 229.248 512.032 511.968-0.032 282.816-229.248 512-512.032 512.032zM511.968 50.592c-219.456 0.416-397.056 177.952-397.408 397.376 0.384 219.52 178.016 397.088 397.408 397.44 219.488-0.384 396.992-177.952 397.44-397.44-0.416-219.456-177.952-396.96-397.44-397.376zM738.048 694.88l-325.952-155.488-126.144-338.272 325.856 155.52 126.24 338.24zM592.256 402.816l-132.32 121.184 215.968 103.008-83.648-224.192z" />
<glyph unicode="&#xe618;" glyph-name="credit_card" d="M843.296 839.52h-662.592c-99.616 0-180.704-81.088-180.704-180.704v-421.632c0-99.616 81.088-180.704 180.704-180.704h662.592c99.616 0 180.704 81.088 180.704 180.704v421.632c0 99.616-81.088 180.704-180.704 180.704zM903.52 237.152c0-33.248-26.976-60.224-60.224-60.224h-662.592c-33.248 0-60.224 26.976-60.224 60.224v240.928h783.040v-240.928zM903.52 598.56h-783.040v60.192c0 33.248 26.976 60.224 60.224 60.224h662.592c33.248 0 60.224-26.976 60.224-60.224v-60.192zM682.688 280.96h124.128c17.12 0 31.040 13.92 31.040 31.040s-13.92 31.040-31.040 31.040h-124.128c-17.12 0-31.040-13.92-31.040-31.040s13.92-31.040 31.040-31.040z" />
<glyph unicode="&#xe619;" glyph-name="creditcard" d="M921.6 806.4h-819.2c-56.32 0-102.4-46.080-102.4-102.4v-512c0-56.32 46.080-102.4 102.4-102.4h819.2c56.32 0 102.4 46.080 102.4 102.4v512c0 56.32-46.080 102.4-102.4 102.4zM921.6 192h-819.2v307.2h819.2v-307.2zM921.6 652.8h-819.2v51.2h819.2v-51.2zM204.8 391.68v-30.72h30.72v30.72h-30.72zM389.12 330.24v-30.72h61.44v30.72h30.72v30.72h30.72v30.72h-61.44v-30.72h-30.72v-30.72h-30.72zM512 299.52v30.72h-30.72v-30.72h30.72zM358.4 299.52v30.72h-61.44v-30.72h61.44zM389.12 360.96h30.72v30.72h-61.44v-61.44h30.72v30.72zM266.24 330.24h30.72v30.72h30.72v30.72h-61.44v-30.72h-30.72v-30.72h-30.72v-30.72h61.44v30.72z" />
<glyph unicode="&#xe61a;" glyph-name="delete2" d="M512 960c-282.784 0-512-229.216-512-512s229.216-512 512-512 512 229.216 512 512c0 282.784-229.216 512-512 512zM768 424.736h-512v46.528h512v-46.528z" />
<glyph unicode="&#xe61b;" glyph-name="document" d="M937.792 1.248c0-18.624-6.24-33.824-18.624-45.44-12.416-13.216-27.232-19.424-44.256-18.624l-724.64-1.184c-17.888 0.736-32.992 7.008-45.44 18.624-12.416 13.216-18.624 28.352-18.624 45.44v895.872c0 17.088 6.208 32.224 18.624 45.44 12.384 11.616 27.552 17.824 45.44 18.624l362.304-1.152v-361.152c0-18.624 6.208-33.76 18.624-45.408 12.416-13.216 27.552-19.424 45.44-18.624l361.152-1.152c0-0.032 0-531.264 0-531.264zM767.68 340.192c0 7.008-1.92 12.416-5.792 16.352-3.936 4.64-8.992 6.592-15.2 5.792l-468.32 1.184c-6.208-0.736-11.648-2.688-16.32-5.792-3.904-5.472-5.824-10.88-5.824-16.352v-43.072c0-5.472 1.952-10.528 5.824-15.2 4.672-3.072 10.112-5.056 16.32-5.792l468.32 1.152c6.208-0.8 11.264 1.152 15.2 5.792 3.904 3.136 5.792 8.16 5.792 15.2 0 0 0 40.736 0 40.736zM767.68 171.328c0 5.44-1.92 10.528-5.792 15.136-3.936 3.072-8.992 5.056-15.2 5.824l-468.32-1.184c-6.208 0.736-11.648-1.152-16.32-5.824-3.904-3.072-5.824-8.128-5.824-15.136v-40.8c0-6.976 1.952-12.416 5.824-16.32 4.672-4.672 10.112-6.592 16.32-5.824l468.32-1.152c6.208 0.8 11.264 2.688 15.2 5.824 3.904 5.44 5.792 10.88 5.792 16.32v43.136zM936.608 618.656l-339.008-1.152v340.16c36.48-7.744 65.632-22.144 87.392-43.104l208.512-208.512c21.696-21.792 36.128-51.264 43.104-88.544 0 0 0 1.152 0 1.152z" />
<glyph unicode="&#xe61c;" glyph-name="dollar" d="M466.592 353.088c-8.32 8.864-12.32 20.8-12.032 36.032h-56.448c2.688-31.488 12.384-55.36 29.184-71.616 16.864-16.32 40.128-25.504 70.080-27.648v-34.048h23.552v34.048c20.032 1.312 36.416 5.408 49.28 12 12.704 6.688 22.944 14.336 30.56 22.88 7.616 8.48 12.864 17.184 15.808 26.176 2.912 8.928 4.384 16.32 4.384 22.176 0 6.624-0.48 14.24-1.376 22.816-0.928 8.608-3.936 17.088-9.024 25.632-5.024 8.544-12.928 16.704-23.552 24.576-10.72 7.936-25.888 14.56-45.664 19.808-3.776 1.152-7.328 2.016-10.56 2.848-3.392 0.832-6.624 1.536-9.856 2.368v70.848c9.088 0 16.8-3.712 23.168-11.232 6.464-7.456 9.792-16.48 10.080-27.2h56.768c-0.768 13.856-3.68 25.888-8.768 35.968-5.088 10.24-11.616 18.656-19.552 25.504-8.096 6.784-17.344 12.096-27.872 16-10.56 3.84-21.792 6.4-33.792 7.776v30.72h-23.552v-30.72c-12-0.768-23.648-3.072-34.88-7.072-11.168-3.776-21.024-9.248-29.632-16.32-8.48-7.072-15.328-15.776-20.48-26.176-5.248-10.4-7.84-22.464-7.84-36.032 0-13.344 2.304-24.48 6.848-33.44 4.448-8.928 10.528-16.416 18.176-22.4 7.552-6.016 16.16-10.848 25.792-14.304 9.536-3.712 19.328-6.88 29.184-9.536 2.688-0.544 5.152-1.088 7.488-1.792 2.24-0.608 4-1.216 5.376-1.76v-83.648c-12.352 2.368-22.688 7.904-30.848 16.768zM520.96 413.152c15.712-4.32 26.88-9.088 33.408-14.24s9.792-12.992 9.792-23.392c0-6.4-1.312-11.936-4-16.544-2.688-4.704-6.016-8.64-10.176-11.776-4.16-3.232-8.864-5.696-14.016-7.488-5.152-1.696-10.24-2.848-15.008-3.392v76.832zM469.76 488.384c-5.536 4.768-8.384 11.552-8.384 20.416 0 5.536 0.992 10.4 3.008 14.56s4.704 7.616 8.16 10.464c3.456 2.784 7.392 4.864 11.712 6.176 4.224 1.376 8.608 1.984 13.152 1.984v-65.216c-12.864 2.912-22.016 6.784-27.648 11.616zM907.936 222.56v448.512h-276.608c46.432-51.744 76.48-132.928 76.48-224.256s-30.048-172.512-76.48-224.256h276.608zM0 788.896v-681.76h1024v681.76h-1024zM966.624 163.872h-909.248v565.952h909.248v-565.952zM316.192 446.816c0 91.328 29.952 172.512 76.48 224.256h-276.608v-448.512h276.608c-46.528 51.744-76.48 132.928-76.48 224.256z" />
<glyph unicode="&#xe61d;" glyph-name="down_arrow" d="M54.144 729.824l-54.144-54.176 509.472-509.472 2.528 2.528 2.496-2.528 509.504 509.472-54.176 54.176-457.824-457.856z" />
<glyph unicode="&#xe61e;" glyph-name="download" d="M512 960c-282.784 0-512-229.216-512-512s229.216-512 512-512 512 229.216 512 512c0 282.784-229.216 512-512 512zM659.296 196.064h-284.448v56.896h284.448v-56.896zM519.392 289.28l-199.104 208.832h149.344v177.344c0 24.992 20.256 45.216 45.216 45.216h9.088c24.992 0 45.216-20.256 45.216-45.216v-177.312h149.344l-199.104-208.864z" />
<glyph unicode="&#xe61f;" glyph-name="edit-layouts" d="M456-3.872l26.080 109.6 458.4 458.4 83.488-83.488-458.4-458.4-109.6-26.080zM517.792 85.792l-8.704-36.512 36.512 8.704 422.72 422.72-27.84 27.84-422.688-422.72zM39.36 107.488v708.48h708.48v-364.96l39.36 39.36v364.96h-787.168v-787.168h413.28v39.36zM787.168 165.952l-39.36-39.36v-19.072h-18.272l-39.36-39.36h96.96zM78.72 776.576h629.728v-295.2h-629.728v295.2zM78.72 442.048h295.2v-295.2h-295.2v295.2zM708.448 442.048h-295.2v-295.2h31.232l263.968 264.8z" />
<glyph unicode="&#xe620;" glyph-name="edit2" d="M368.768-64l30.112 126.4 528.832 528.832 96.32-96.32-528.832-528.832-126.4-30.112zM440.032 39.392l-10.048-42.144 42.144 10.048 487.648 487.616-32.096 32.096-487.648-487.616zM47.040 74.624v840h658.368v-453.856l45.408 45.408v453.856h-749.184v-930.784h317.824v45.408zM750.784 131.872l-45.408-45.408v-11.872h-21.056l-45.408-45.408h111.872z" />
<glyph unicode="&#xe621;" glyph-name="envelope" d="M1024 737.28c0 44.16-35.584 91.456-79.744 91.456h-863.616c-44.16-0.032-80.64-47.296-80.64-91.456v-591.744c0-44.16 36.48-78.24 80.64-78.24h863.616c20.448 0 38.912 7.072 53.056 19.712 1.376 0.896 2.912 1.088 4.096 2.304 1.376 1.376 2.016 2.848 2.976 4.448 12.128 13.984 19.616 31.808 19.616 51.776v591.744zM340.512 437.408l-287.744-288.704c-0.544-0.544-0.256-1.248-0.256-1.824v580.448l288-289.92zM83.776 117.888l288.736 287.168 130.336-131.104c9.376-9.376 24.544-9.76 33.92-0.384 3.616 3.616 5.376 7.936 6.208 12.608l115.2 115.072c1.184-3.232 2.912-3.232 5.504-5.824l278.688-275.616h-860.384c0.576 0 1.28-2.464 1.792-1.92zM695.68 426.624c-2.592 2.592-6.848 4.32-10.080 5.504l285.888 287.072v-570.784l-275.808 278.208zM80.64 776.192h863.616c4.672 0 9.056-4.512 13.056-6.304-2.016-1.088-4.096-3.872-5.792-5.6l-435.136-435.968-441.248 444.288c1.792 0.32 3.616 3.584 5.504 3.584z" />
<glyph unicode="&#xe622;" glyph-name="export" d="M768 151.040h-665.6v460.8h132.864c0 0 35.264 45.888 111.104 102.4h-295.168c-28.256 0-51.2-22.944-51.2-51.2v-563.2c0-28.32 22.944-51.2 51.2-51.2h768c28.32 0 51.2 22.88 51.2 51.2v191.808l-102.4-84.224v-56.384zM684.128 506.88v-181.76l339.872 266.304-339.872 255.936v-160.256c-412.768-0.064-412.768-408.064-412.768-408.064 116.832 191.904 188.736 227.84 412.768 227.84z" />
<glyph unicode="&#xe623;" glyph-name="eye" d="M512 734.72c-335.936 0-512-247.456-512-286.72s176.064-286.72 512-286.72 512 247.456 512 286.72-176.064 286.72-512 286.72zM512 227.424c-125.632 0-227.52 98.752-227.52 220.576s101.888 220.576 227.52 220.576c125.696 0 227.584-98.752 227.584-220.576s-101.888-220.576-227.584-220.576zM512 448c-20.8 22.848 33.984 110.24 0 110.24-62.816 0-113.76-49.344-113.76-110.24s50.944-110.272 113.76-110.272c62.88 0 113.824 49.408 113.824 110.272 0 27.968-96.064-19.456-113.824 0z" />
<glyph unicode="&#xe624;" glyph-name="file-text-o" d="M768.032 256v-42.688c0-6.208-2.016-11.328-6.016-15.36-4-4-9.12-6.016-15.36-6.016h-469.312c-6.208 0-11.328 2.016-15.36 6.016-4 4-6.016 9.12-6.016 15.36v42.688c0 6.208 2.016 11.328 6.016 15.36 4 4 9.12 6.016 15.36 6.016h469.312c6.208 0 11.328-2.016 15.36-6.016 4-4.032 6.016-9.152 6.016-15.36zM768.032 426.688v-42.688c0-6.208-2.016-11.328-6.016-15.36-4-4-9.12-6.016-15.36-6.016h-469.312c-6.208 0-11.328 2.016-15.36 6.016-4 4.032-6.016 9.152-6.016 15.36v42.688c0 6.208 2.016 11.328 6.016 15.36 4 4 9.12 6.016 15.36 6.016h469.312c6.208 0 11.328-2.016 15.36-6.016 4-4.032 6.016-9.152 6.016-15.36zM170.688 21.312h682.688v512h-277.376c-17.76 0-32.864 6.208-45.312 18.656s-18.656 27.552-18.656 45.312v277.376h-341.344c0 0 0-853.344 0-853.344zM597.312 618.656h250.688c-4.448 12.896-9.344 22.016-14.688 27.328l-208.672 208.672c-5.312 5.312-14.432 10.208-27.328 14.688 0-0.032 0-250.688 0-250.688zM938.688 597.344v-597.344c0-17.76-6.208-32.864-18.656-45.312-12.48-12.48-27.584-18.688-45.344-18.688h-725.376c-17.76 0-32.864 6.208-45.312 18.656s-18.688 27.552-18.688 45.344v896c0 17.76 6.208 32.864 18.656 45.312s27.584 18.688 45.344 18.688h426.688c17.76 0 37.312-4.448 58.656-13.344s38.208-19.552 50.656-32l208-208c12.448-12.448 23.104-29.344 32-50.656s13.344-40.896 13.344-58.656h0.032z" />
<glyph unicode="&#xe625;" glyph-name="flag2" d="M994.72 750.624c-648.96-259.776-386.080 439.456-889.408 71.328l-105.312-37.76 208.576-819.712h114.848l-102.144 401.504c449.056 376.48 267.264-410.24 798.496 361.6 12.32 17.92-4.16 31.424-25.056 23.040z" />
<glyph unicode="&#xe626;" glyph-name="gauge" d="M416.16 253.344c-35.328-61.248-11.584-111.616 37.44-139.872s104.544-23.744 139.872 37.472c35.328 61.184 258.4 607.552 239.008 618.752s-380.992-455.104-416.32-516.352zM512 642.464c22.432 0 44.288-1.952 65.6-5.536 22.432 28.064 47.552 58.976 72 88.416-43.616 12.64-89.664 19.52-137.568 19.52-287.072 0-512-242.080-512-551.104 0-19.040 0.864-38.048 2.496-56.576 2.496-28.16 27.648-48.896 55.552-46.432 28.16 2.56 48.96 27.392 46.432 55.552-1.376 15.52-2.112 31.488-2.112 47.456 0 251.584 179.968 448.704 409.6 448.704zM881.6 578.496c-14.272-38.4-29.376-77.504-42.688-111.36 52.064-75.264 82.688-169.632 82.688-273.408 0-16.224-0.704-32.576-2.144-48.384-2.56-28.16 18.176-53.056 46.336-55.648 1.6-0.16 3.136-0.192 4.704-0.192 26.176 0 48.48 20.032 50.88 46.528 1.728 18.944 2.624 38.336 2.624 57.696 0 151.104-53.856 286.144-142.4 384.768z" />
<glyph unicode="&#xe627;" glyph-name="gift" d="M771.52 640c18.112 12.864 35.52 27.232 51.456 43.136 33.408 33.408 55.744 74.496 62.912 115.712 7.872 45.184-3.68 87.136-31.616 115.104-22.304 22.304-52.512 34.080-87.36 34.080-49.632 0-101.92-23.808-143.456-65.376-66.464-66.464-105.216-158.24-126.080-223.712-15.424 65.792-46.208 154.656-106.016 214.464-32.096 32.096-73.12 48.576-111.84 48.576-31.648 0-61.792-11.008-84.256-33.472-49.984-49.984-43.232-137.792 15.072-196.096 20.8-20.8 45.088-38.048 70.72-52.416h-217.024v-256h64v-448h768v448h64v256h-188.48zM674.336 831.776c27.712 27.712 62.336 44.288 92.544 44.288 10.688 0 25.696-2.24 36.448-12.992 26.016-26.016 11.424-86.304-31.264-128.992-43.936-43.936-103.072-74.176-154.432-94.048h-50.688c18.56 57.536 52.064 136.448 107.392 191.776zM233.92 799.104c-0.704 9.12-0.064 26.24 12.192 38.496 10.24 10.24 23.776 12.384 33.344 12.384v0c21.248 0 43.456-10.016 60.928-27.488 33.888-33.856 61.76-87.776 80.672-155.872 0.512-1.824 0.992-3.68 1.504-5.472-1.824 0.48-3.648 0.992-5.472 1.504-68.096 18.912-122.016 46.784-155.872 80.672-15.84 15.84-25.76 36.16-27.296 55.776zM448 0h-256v416h256v-416zM448 448h-320v128h320v-128zM832 0h-256v416h256v-416zM896 448h-320v128h320v-128z" />
<glyph unicode="&#xe628;" glyph-name="gifts" d="M717.632 695.328c71.264 71.264 90.304 163.872 43.392 210.816-16.992 17.024-40.448 26.016-67.68 26.016-46.144 0-99.648-25.952-143.072-69.44-17.728-17.728-32.256-37.28-43.68-57.408-11.136 19.776-25.792 39.296-43.936 57.408-43.456 43.456-96.928 69.44-143.136 69.44-27.264 0-50.688-9.024-67.68-26.016-47.008-46.944-27.936-139.552 43.36-210.816 5.152-5.152 10.432-10.016 15.84-14.656h-311.040v-238.944h68.256v-443.744c0-18.848 15.296-34.144 34.144-34.144h819.2c18.848 0 34.144 15.296 34.144 34.144v443.744h68.256v238.944h-322.24c5.376 4.64 10.72 9.472 15.872 14.656zM955.744 510.016h-375.488v102.4h375.456v-102.4zM68.256 612.416h375.456v-102.4h-375.456v102.4zM300.064 857.856c4.992 4.992 13.312 6.048 19.424 6.048 27.616 0 64.832-19.392 94.848-49.44 48.128-48.128 57.824-99.84 43.392-114.272-4.992-4.992-13.312-6.048-19.424-6.048-27.616 0-64.832 19.392-94.848 49.44-48.096 48.128-57.824 99.84-43.392 114.272zM712.736 857.856c14.432-14.432 4.736-66.144-43.392-114.272-30.048-30.016-67.232-49.44-94.816-49.44-6.144 0-14.464 1.056-19.424 6.016-6.72 6.752-7.872 21.44-3.136 39.36 6.56 24.64 23.52 51.904 46.528 74.912 30.048 30.016 67.232 49.44 94.816 49.44 6.144 0 14.464-1.024 19.424-6.016zM443.744 441.728v-409.6h-290.144c-9.408 0-17.056 7.648-17.056 17.056v392.544h307.2zM580.256 441.728h307.2v-392.544c0-9.408-7.648-17.056-17.056-17.056h-290.144v409.6z" />
<glyph unicode="&#xe629;" glyph-name="go" d="M308.608 490.080h673.312v-42.080h-673.312v42.080zM861.952 286.016l-28.32 29.408 148.544 150.912-148.896 150.976 26.624 29.6 164.128-169.248v-22.464zM0 910.912v-925.792h715.392v378.72h-42.080v-336.672h-631.232v841.664h631.232v-308.608h42.080v350.688z" />
<glyph unicode="&#xe62a;" glyph-name="headphones" d="M943.296 182.176v179.008c-0.032 119.232-48.224 226.784-126.336 304.96v0c-78.144 78.112-185.728 126.336-304.96 126.336v0c-119.232 0-226.784-48.192-304.96-126.336v0c-78.112-78.144-126.304-185.728-126.336-304.96v0-179.008h-80.704v179.008c0.032 282.784 229.216 511.968 512 512v0c282.784-0.032 511.968-229.216 512-512v0-179.008h-80.704zM862.144 52.352c0-16.288-13.216-29.504-29.504-29.504h-106.144c-16.288 0-29.504 13.216-29.504 29.504v324.704c0 16.288 13.216 29.504 29.504 29.504h106.144c16.288 0 29.504-13.216 29.504-29.504v-324.704zM327.008 52.32c0-16.288-13.216-29.504-29.504-29.504h-106.144c-16.288 0-29.504 13.216-29.504 29.504v324.704c0 16.288 13.216 29.504 29.504 29.504h106.144c16.32 0 29.504-13.216 29.504-29.504v-324.704z" />
<glyph unicode="&#xe62b;" glyph-name="headphones2" d="M192 381.728v-443.424c10.464-1.504 21.12-2.272 32-2.272h32v448h-32c-10.88 0-21.536-0.8-32-2.272zM768 384v-448h32c10.88 0 21.536 0.8 32 2.272v443.424c-10.464 1.504-21.12 2.272-32 2.272h-32zM1024 448c0 282.784-229.216 512-512 512s-512-229.216-512-512c0-61.408 10.816-120.32 30.656-174.88-19.488-33.216-30.656-71.84-30.656-113.12 0-89.344 52.32-166.464 128-202.432v404.864c-20.128-9.568-38.592-22.048-54.848-36.896-5.984 29.216-9.152 59.488-9.152 90.464 0 247.424 200.576 448 448 448s448-200.576 448-448c0-31.008-3.136-61.248-9.152-90.464-16.288 14.848-34.72 27.328-54.848 36.896v-404.864c75.68 35.968 128 113.088 128 202.432 0 41.28-11.168 79.936-30.656 113.12 19.84 54.56 30.656 113.472 30.656 174.88z" />
<glyph unicode="&#xe62c;" glyph-name="images" d="M128 704v-640h896v640h-896zM960 170.656l-128 213.344-145.056-120.896-110.944 184.896-384-320v512h768v-469.344zM256 480c0 53.024 42.976 96 96 96s96-42.976 96-96c0-53.024-42.976-96-96-96s-96 42.976-96 96zM896 832h-896v-640h64v576h832z" />
<glyph unicode="&#xe62d;" glyph-name="large-quotes" d="M196.48 892.608c-108.48 0-196.48-90.496-196.48-202.112s88-202.112 196.48-202.112c196.384 0 65.472-390.752-196.48-390.752v-94.24c467.424 0 650.592 889.216 196.48 889.216zM762.304 892.608c-108.48 0-196.48-90.496-196.48-202.112s88-202.112 196.48-202.112c196.384 0 65.472-390.752-196.48-390.752v-94.24c467.488 0 650.688 889.216 196.48 889.216z" />
<glyph unicode="&#xe62e;" glyph-name="left-align" d="M0 746.656h853.344v-85.344h-853.344c0 0.032 0 85.344 0 85.344zM0 234.656h853.344v-85.344h-853.344c0 0.032 0 85.344 0 85.344zM0 576h1024v-85.344h-1024c0 0 0 85.344 0 85.344zM0 405.344h768v-85.344h-768v85.344z" />
<glyph unicode="&#xe62f;" glyph-name="left-arrow-rounded" d="M779.072 67.584c29.856-30.208 29.856-78.88 0-108.928-29.824-30.208-78.048-30.208-107.84 0l-426.304 434.848c-29.856 30.208-29.856 78.88 0 108.928l426.304 435.040c29.824 30.048 78.048 30.048 107.84 0 29.856-30.208 29.856-78.816 0-108.928l-349.504-380.48 349.504-380.48z" />
<glyph unicode="&#xe630;" glyph-name="left-arrow" d="M941.44 530.56h-625.696l189.088 189.088c32.256 32.256 32.256 84.384 0 116.608-32.256 32.192-84.384 32.192-116.608 0l-388.224-388.224 388.224-388.224c16.096-16.096 37.184-24.192 58.336-24.192s42.24 8.096 58.336 24.192c32.256 32.256 32.256 84.384 0 116.608l-189.056 189.056h625.728c45.536 0 82.432 36.96 82.432 82.432 0 45.504-36.96 82.432-82.432 82.432l-0.064 0.16-0.064 0.064z" />
<glyph unicode="&#xe631;" glyph-name="list2" d="M950.848 521.152h-877.696c-40.384 0-73.152-32.8-73.152-73.152s32.768-73.152 73.152-73.152h877.728c40.448 0 73.12 32.8 73.12 73.152s-32.672 73.152-73.152 73.152zM73.152 667.424h877.728c40.448 0 73.12 32.768 73.12 73.152s-32.672 73.152-73.152 73.152h-877.696c-40.384 0-73.152-32.8-73.152-73.152s32.768-73.152 73.152-73.152zM950.848 228.576h-877.696c-40.384 0-73.152-32.704-73.152-73.152s32.768-73.152 73.152-73.152h877.728c40.448 0 73.152 32.672 73.152 73.152s-32.704 73.152-73.184 73.152z" />
<glyph unicode="&#xe632;" glyph-name="login" d="M982.272 864h-526.752c-5.376 0-9.76-4.352-9.76-9.76v-109.088c0-5.376 4.352-9.76 9.76-9.76h407.904v-598.048h-407.904c-5.376 0-9.76-4.352-9.76-9.728v-109.088c0-5.376 4.352-9.76 9.76-9.76h526.72c5.376 0 9.76 4.384 9.76 9.76v835.744c0 5.376-4.352 9.728-9.728 9.728zM369.376 220c0-3.616 1.984-6.912 5.184-8.608 1.44-0.768 3.008-1.152 4.576-1.152 1.888 0 3.808 0.576 5.44 1.664l283.264 216.416c2.688 1.824 4.32 4.832 4.32 8.064 0 3.264-1.632 6.272-4.32 8.096l-283.264 216.416c-2.976 2.016-6.848 2.208-10.016 0.512s-5.184-4.992-5.184-8.608v-127.968h-327.648c-5.376 0-9.728-4.352-9.728-9.728v-157.376c0-5.376 4.352-9.728 9.728-9.728h327.648v-128z" />
<glyph unicode="&#xe633;" glyph-name="login2" d="M910.208 960h-512c-62.592 0-112.64-51.2-112.64-113.792v-170.656h112.64v170.656h512v-796.448h-512v113.792h-112.64v-113.792c0-62.592 50.048-113.792 112.64-113.792h512c62.592 0.032 113.792 51.232 113.792 113.824v796.416c0 62.592-51.2 113.792-113.792 113.792zM512 197.696l227.552 221.856-227.552 221.856v-136.544h-512v-170.656h512v-136.512z" />
<glyph unicode="&#xe634;" glyph-name="logout" d="M1013.632 904.096h-561.888c-5.728 0-10.4-4.64-10.4-10.4v-116.352c0-5.728 4.64-10.4 10.4-10.4h435.104v-637.92h-435.104c-5.728 0-10.4-4.64-10.4-10.368v-116.352c0-5.728 4.64-10.4 10.4-10.4h561.856c5.728 0 10.4 4.672 10.4 10.4v891.424c0 5.728-4.64 10.368-10.368 10.368zM322.912 678.848c0 3.84-2.112 7.36-5.504 9.184-1.536 0.832-3.2 1.216-4.864 1.216-2.016 0-4.064-0.608-5.792-1.792l-302.144-230.816c-2.88-1.952-4.608-5.184-4.608-8.608 0-3.488 1.728-6.688 4.608-8.64l302.144-230.816c3.2-2.144 7.296-2.368 10.688-0.544s5.504 5.312 5.504 9.184v136.512h349.504c5.728 0 10.368 4.64 10.368 10.4v167.872c0 5.728-4.64 10.368-10.368 10.368h-349.504l-0.032 136.48z" />
<glyph unicode="&#xe635;" glyph-name="menu-icon" d="M0 736h1024v-64h-1024v64zM0 480h1024v-64h-1024v64zM0 224h1024v-64h-1024v64z" />
<glyph unicode="&#xe636;" glyph-name="menu2" d="M0 850.272h1024v-219.424h-1024v219.424zM0 557.728h1024v-219.424h-1024v219.424zM0 265.152h1024v-219.424h-1024v219.424z" />
<glyph unicode="&#xe637;" glyph-name="microphone" d="M204.48 386.336v243.968h67.616v-243.968c0-82.528 107.776-149.44 240.096-149.44 4.928 0 9.952 0 14.912 0.384 125.216 4.608 224.8 69.696 224.8 149.056v243.936h67.552v-243.968c0-113.12-116.288-203.84-271.392-215.904v-155.808h203.52c15.616 0 28.448-9.248 28.448-20.672v-37.312c0-11.392-12.832-20.64-28.448-20.64h-485.184c-15.616 0-28.448 9.248-28.448 20.64v37.312c0 11.424 12.832 20.672 28.448 20.672h203.104v156.48c-151.52 14.272-265.024 103.904-265.024 215.264zM328.288 386.336v480.192c0 44.416 78.624 93.472 183.904 93.472 104.928 0 183.552-49.056 183.552-93.472v-16.384h-171.808c-16.032 0-28.448-8.544-28.448-19.2v-35.2c0-11.040 12.416-19.616 28.448-19.616h171.808v-42.688h-171.808c-16.032 0-28.448-8.544-28.448-19.552v-35.584c0-10.592 12.416-19.168 28.448-19.168h171.808v-42.72h-171.808c-16.032 0-28.448-8.512-28.448-19.488v-34.912c0-11.040 12.416-19.552 28.448-19.552h171.808v-156.128c0-43.776-78.592-93.568-183.552-93.568-105.28 0-183.904 49.76-183.904 93.568z" />
<glyph unicode="&#xe638;" glyph-name="minus" d="M819.2 857.6h-614.4c-56.32 0-102.4-46.080-102.4-102.4v-614.4c0-56.32 46.080-102.4 102.4-102.4h614.4c56.32 0 102.4 46.080 102.4 102.4v614.4c0 56.32-46.080 102.4-102.4 102.4zM768 396.8h-512v102.4h512v-102.4z" />
<glyph unicode="&#xe639;" glyph-name="minus2" d="M778.176 499.2h-532.416c-28.32 0-30.72-22.944-30.72-51.2s2.4-51.2 30.72-51.2h532.416c28.32 0 30.784 22.944 30.784 51.2s-2.464 51.2-30.784 51.2z" />
<glyph unicode="&#xe63a;" glyph-name="mobile-phone" d="M576.032 38.4c0 17.6-6.272 32.672-18.816 45.216s-27.616 18.816-45.216 18.816c-17.6 0-32.672-6.272-45.216-18.816s-18.784-27.616-18.784-45.216c0-17.6 6.272-32.672 18.816-45.216s27.616-18.816 45.216-18.816c17.6 0 32.672 6.272 45.216 18.816 12.512 12.576 18.784 27.648 18.784 45.216zM742.432 166.4v563.168c0 6.944-2.528 12.928-7.616 18.016s-11.104 7.584-18.016 7.584h-409.6c-6.944 0-12.928-2.528-18.016-7.616-5.056-5.056-7.616-11.072-7.616-17.984v-563.168c0-6.944 2.528-12.928 7.616-18.016s11.072-7.616 18.016-7.616h409.6c6.944 0 12.928 2.528 18.016 7.616s7.616 11.072 7.616 18.016zM588.8 844.768c0 8.544-4.256 12.8-12.8 12.8h-128c-8.544 0-12.8-4.256-12.8-12.8s4.256-12.8 12.8-12.8h128c8.544 0 12.8 4.256 12.8 12.8zM819.2 857.6v-819.2c0-27.744-10.144-51.744-30.432-72s-44.256-30.368-71.968-30.4h-409.6c-27.744 0-51.744 10.144-72 30.432s-30.368 44.256-30.4 71.968v819.2c0 27.744 10.144 51.744 30.432 72 20.256 20.224 44.256 30.368 71.968 30.4h409.6c27.744 0 51.744-10.144 72-30.432 20.224-20.256 30.368-44.256 30.4-71.968z" />
<glyph unicode="&#xe63b;" glyph-name="paper-airplane" d="M460 350.944l-33.312-329.632 203.52 251.424 194.72-87.904 199.072 689.824-564-523.712zM1024 874.656l-1024-420.928 241.76-48.416 184.928-384-133.344 384 730.656 469.344z" />
<glyph unicode="&#xe63c;" glyph-name="paragraph-center" d="M0 768h1024v-64h-1024zM192 640h640v-64h-640zM192 384h640v-64h-640zM192 128h640v-64h-640zM0 512h1024v-64h-1024zM0 256h1024v-64h-1024z" />
<glyph unicode="&#xe63d;" glyph-name="paragraph-left" d="M0 768h1024v-64h-1024zM0 640h704v-64h-704zM0 512h1024v-64h-1024zM0 384h704v-64h-704zM0 256h1024v-64h-1024zM0 128h704v-64h-704z" />
<glyph unicode="&#xe63e;" glyph-name="paragraph-right" d="M0 768h1024v-64h-1024zM320 640h704v-64h-704zM0 512h1024v-64h-1024zM320 384h704v-64h-704zM0 256h1024v-64h-1024zM320 128h704v-64h-704z" />
<glyph unicode="&#xe63f;" glyph-name="person2" d="M512 664.64c81.568 0 147.712 66.112 147.712 147.68s-66.144 147.68-147.712 147.68-147.712-66.144-147.712-147.712c0-81.504 66.144-147.648 147.712-147.648zM662.944 638.176h-301.92c-32.96 0-59.68-26.976-59.68-60.224v-315.456h85.28v-326.496h250.784v326.528h85.248v315.456c0 33.248-26.72 60.192-59.712 60.192z" />
<glyph unicode="&#xe640;" glyph-name="phone-square" d="M853.312 250.016c0 4.864-0.448 8.448-1.344 10.688-1.344 3.552-9.92 10.112-25.696 19.68s-35.456 20.544-58.976 32.992l-35.328 19.328c-2.208 1.344-6.432 4.224-12.64 8.672s-11.776 7.776-16.64 10.016c-4.864 2.24-9.536 3.36-13.984 3.328-8 0-18.432-7.232-31.328-21.664s-25.568-28.992-38.016-43.68c-12.448-14.688-22.24-22.016-29.344-21.984-3.104 0-6.784 0.768-11.008 2.336s-7.68 3.008-10.336 4.32c-2.656 1.312-6.432 3.424-11.36 6.336s-8 4.8-9.344 5.664c-44 24.448-81.888 52.544-113.664 84.32s-59.904 69.664-84.32 113.664c-0.896 1.344-2.784 4.448-5.664 9.344-2.88 4.864-4.992 8.672-6.336 11.36s-2.784 6.144-4.32 10.336c-1.536 4.192-2.336 7.872-2.336 11.008 0 5.76 4.544 13.216 13.664 22.336s19.104 17.664 30.016 25.696c10.912 8 20.896 16.8 30.016 26.304 9.12 9.536 13.664 17.632 13.664 24.352 0 4.448-1.12 9.12-3.328 13.984s-5.536 10.432-10.016 16.64-7.328 10.432-8.672 12.64c-1.344 2.656-4.672 8.992-10.016 19.008s-10.88 20.128-16.64 30.336c-5.76 10.24-11.648 20.768-17.664 31.648s-11.552 19.872-16.64 26.976c-5.152 7.232-8.832 11.2-11.072 12.096-2.24 0.864-5.792 1.312-10.688 1.344-21.344 0-43.776-4.896-67.36-14.656-20.416-9.376-38.176-30.368-53.312-63.040s-22.688-61.664-22.656-86.976c0-7.104 0.576-14.656 1.664-22.656 1.12-8 2.24-14.784 3.328-20.352s3.104-12.896 6.016-21.984c2.912-9.088 5.152-15.648 6.688-19.68s4.32-11.36 8.32-21.984c4-10.624 6.432-17.312 7.328-20 26.656-72.896 74.752-144.128 144.32-213.664s140.768-117.632 213.664-144.32c2.656-0.896 9.344-3.328 20-7.328 10.688-3.968 18.016-6.752 21.984-8.32s10.528-3.808 19.68-6.688 16.448-4.896 21.984-6.016c5.536-1.12 12.32-2.24 20.352-3.328s15.584-1.664 22.656-1.664c25.344 0 54.336 7.552 86.976 22.656s53.664 32.896 63.008 53.344c9.792 23.552 14.656 45.984 14.656 67.36l0.064-0.128zM1024 768v-640c0-52.896-18.784-98.112-56.32-135.68s-82.784-56.32-135.68-56.32h-640c-52.896 0-98.112 18.784-135.68 56.32s-56.32 82.784-56.32 135.68v640c0 52.896 18.784 98.112 56.32 135.68s82.784 56.32 135.68 56.32h640c52.896 0 98.112-18.784 135.68-56.32s56.32-82.784 56.32-135.68z" />
<glyph unicode="&#xe641;" glyph-name="photos" d="M40.896 960v-786.56h198.752v207.232h-122.24v504.192h512.448v-85.6h76.384v160.704l-665.344 0.032zM317.76 722.592v-786.592h665.376v786.592c-0.032 0-665.376 0-665.376 0zM906.688 143.232h-512.48v504.192h512.48v-504.192z" />
<glyph unicode="&#xe642;" glyph-name="pictures" d="M876.8 592.736l-104.768 288.576c-7.744 21.312-30.464 32.576-50.624 25.184l-696.16-254.112c-20.224-7.328-30.4-30.56-22.688-51.872l110.432-304.224v163.072c0 73.568 58.784 133.376 131.136 133.376h183.968l219.392 154.016 126.976-154.016h102.336zM984.992 500.384h-740.864c-21.504 0-39.008-18.368-39.008-41.056v-482.368c0-22.624 17.472-41.056 39.008-41.056h740.864c21.568 0 39.008 18.368 39.008 41.056v482.4c0 22.624-17.472 41.024-39.008 41.024zM928.448 38.56h-614.144v88l94.464 219.904 141.76-175.968 132.96 136.288 170.944 61.696 73.984-164.96v-164.96z" />
<glyph unicode="&#xe643;" glyph-name="play" d="M512 960c-282.752 0-512-229.248-512-512s229.248-512 512-512 512 229.248 512 512-229.248 512-512 512zM320 192v512l512.256-256-512.256-256z" />
<glyph unicode="&#xe644;" glyph-name="play2" d="M981.184 799.904c-143.616 20.64-302.336 32.096-469.184 32.096s-325.568-11.456-469.184-32.096c-27.52-107.712-42.816-226.752-42.816-351.904s15.264-244.16 42.816-351.904c143.648-20.64 302.336-32.096 469.184-32.096s325.568 11.456 469.184 32.096c27.52 107.712 42.816 226.752 42.816 351.904s-15.264 244.16-42.816 351.904zM384 256v384l320-192-320-192z" />
<glyph unicode="&#xe645;" glyph-name="playing" d="M582.272 469.664l42.592-42.592-183.136-183.136-42.592 42.592c0 0.032 183.136 183.136 183.136 183.136zM431.2 652.064l204.224-204.224-42.592-42.592-204.224 204.224c-0.032-0.032 42.592 42.592 42.592 42.592zM512-64c-282.304 0-512 229.696-512 512s229.696 512 512 512 512-229.696 512-512-229.696-512-512-512zM512 899.744c-249.12 0-451.744-202.624-451.744-451.744s202.624-451.744 451.744-451.744 451.744 202.624 451.744 451.744-202.624 451.744-451.744 451.744z" />
<glyph unicode="&#xe646;" glyph-name="plus" d="M819.2 857.6h-614.4c-56.32 0-102.4-46.080-102.4-102.4v-614.4c0-56.32 46.080-102.4 102.4-102.4h614.4c56.32 0 102.4 46.080 102.4 102.4v614.4c0 56.32-46.080 102.4-102.4 102.4zM768 396.8h-204.8v-204.8h-102.4v204.8h-204.8v102.4h204.8v204.8h102.4v-204.8h204.8v-102.4z" />
<glyph unicode="&#xe647;" glyph-name="plus2" d="M778.176 499.2h-215.040v215.040c0 28.256-22.88 30.72-51.2 30.72-28.256 0-51.2-2.4-51.2-30.72v-215.040h-214.976c-28.32 0-30.72-22.944-30.72-51.2s2.4-51.2 30.72-51.2h214.976v-215.040c0-28.256 22.944-30.72 51.2-30.72 28.32 0 51.2 2.464 51.2 30.72v215.040h215.040c28.32 0 30.784 22.944 30.784 51.2s-2.464 51.2-30.784 51.2z" />
<glyph unicode="&#xe648;" glyph-name="points_expense" d="M512 960c-282.784 0-512-229.216-512-512s229.216-512 512-512 512 229.216 512 512-229.216 512-512 512zM512 16c-238.592 0-432 193.408-432 432s193.408 432 432 432 432-193.408 432-432-193.408-432-432-432zM703.872 512c-35.328 0-63.872-28.608-63.872-63.936s28.544-64.064 63.872-64.064c35.456 0 64.128 28.704 64.128 64.064s-28.672 63.936-64.128 63.936zM511.872 512c-35.328 0-63.872-28.608-63.872-63.936s28.544-64.064 63.872-64.064c35.456 0 64.128 28.704 64.128 64.064s-28.672 63.936-64.128 63.936zM320 512c-35.392 0-64-28.608-64-63.936s28.608-64.064 64-64.064c35.328 0 64 28.704 64 64.064s-28.672 63.936-64 63.936z" />
<glyph unicode="&#xe649;" glyph-name="postcard" d="M494.944 670.272h17.056v-477.856h-17.056v477.856zM631.456 346.016h256v-34.144h-256v34.144zM631.456 277.728h256v-34.144h-256v34.144zM631.456 209.472h256v-34.144h-256v34.144zM887.456 670.272h-153.6v-153.6zM733.856 670.272h153.6v-153.6h-153.6v153.6zM733.856 687.328h17.056v-17.056h-17.056v17.056zM768 687.328h17.056v-17.056h-17.056v17.056zM802.144 687.328h17.056v-17.056h-17.056v17.056zM836.256 687.328h17.056v-17.056h-17.056v17.056zM870.4 687.328h17.056v-17.056h-17.056v17.056zM887.456 670.272h17.056v-17.056h-17.056v17.056zM887.456 636.128h17.056v-17.056h-17.056v17.056zM887.456 602.016h17.056v-17.056h-17.056v17.056zM887.456 567.872h17.056v-17.056h-17.056v17.056zM887.456 533.728h17.056v-17.056h-17.056v17.056zM716.8 670.272h17.056v-17.056h-17.056v17.056zM716.8 636.128h17.056v-17.056h-17.056v17.056zM716.8 602.016h17.056v-17.056h-17.056v17.056zM716.8 567.872h17.056v-17.056h-17.056v17.056zM716.8 533.728h17.056v-17.056h-17.056v17.056zM733.856 516.672h17.056v-17.056h-17.056v17.056zM768 516.672h17.056v-17.056h-17.056v17.056zM802.144 516.672h17.056v-17.056h-17.056v17.056zM836.256 516.672h17.056v-17.056h-17.056v17.056zM870.4 516.672h17.056v-17.056h-17.056v17.056zM887.456 516.672h-153.6v153.6h153.6v-153.6zM750.944 533.728h119.456v119.456h-119.456v-119.456zM989.856 789.728v-716.8h-955.744v716.8h955.744zM1024 823.872h-1024v-785.056h1024v785.056z" />
<glyph unicode="&#xe64a;" glyph-name="presentation" d="M32 134.944v626.112h960v-626.080h-960zM170.272 402.336c8.672-20.032 20.64-37.632 35.904-52.832 15.168-15.232 32.768-27.168 52.8-35.84 19.968-8.736 41.728-13.056 65.216-13.056s45.184 4.352 65.216 13.056c19.968 8.672 37.632 20.64 52.832 35.84s27.168 32.832 35.84 52.832c8.672 19.968 13.056 41.728 13.056 65.216h-166.976v166.944c-23.488 0-45.248-4.352-65.216-13.024-20.032-8.736-37.632-20.672-52.8-35.84-15.264-15.264-27.2-32.864-35.904-52.832-8.672-20.032-13.024-41.728-13.024-65.216 0.032-23.52 4.384-45.248 13.056-65.248zM408.96 134.944h83.52zM534.208 134.944h83.456zM492.448 134.944h41.728zM575.936 635.808v-41.728h41.728v41.728h-41.728zM575.936 552.32v-41.728h41.728v41.728h-41.728zM575.936 468.864v-41.728h41.728v41.728h-41.728zM575.936 385.408v-41.792h41.728v41.792h-41.728zM575.936 301.888v-41.728h41.728v41.728h-41.728zM659.392 635.808v-41.728h207.392v41.728h-207.392zM659.392 552.32v-41.728h207.392v41.728h-207.392zM659.392 468.864v-41.728h207.392v41.728h-207.392zM659.392 385.408v-41.792h207.392v41.792h-207.392zM659.392 301.888v-41.728h207.392v41.728h-207.392z" />
<glyph unicode="&#xe64b;" glyph-name="preview" d="M439.552 320h-311.552v576h576v-311.456c32-0.992 32-2.752 64-5.44v380.896h-704v-704h380.992c-2.688 32-4.448 32-5.44 64zM892.448 131.648c89.952 89.952 89.952 235.808 0 325.76s-235.808 89.952-325.76 0c-75.872-75.872-87.488-191.392-35.392-279.712l-149.024-149.024c-14.976-14.976-14.976-39.296 0-54.304l27.136-27.136c14.976-14.976 39.296-14.976 54.304 0l149.024 149.024c88.32-52.096 203.84-40.48 279.712 35.392zM607.392 172.384c-67.36 67.36-67.36 176.96 0 244.32s176.96 67.36 244.32 0 67.36-176.96 0-244.32-176.96-67.36-244.32 0zM160 755.424v-27.136l303.776-303.744c3.136 5.664 6.56 11.296 10.208 16.928l-313.984 313.952zM160 836.864v-27.136l336.96-336.896c4.064 4.96 8.16 9.824 12.512 14.624l-349.472 349.408zM160 673.984v-27.136l281.312-281.28c1.344 7.072 3.136 14.24 5.6 21.536l-286.912 286.88zM160 592.544v-27.168l213.472-213.376h27.136zM160 429.632v-27.136l50.592-50.496h27.136zM160 511.072v-27.136l132.032-131.936h27.136zM295.84 864h-27.168l313.952-313.952c5.632 3.616 11.264 7.072 16.928 10.208l-303.712 303.744zM540.16 864h-27.168l159.008-159.072v27.136zM621.6 864h-27.168l77.568-77.632v27.136zM214.4 864h-27.168l349.44-349.44c4.8 4.352 9.664 8.48 14.624 12.512l-336.896 336.928zM377.28 864h-27.136l286.88-286.88c7.296 2.464 14.464 4.256 21.536 5.632l-281.28 281.248zM458.72 864h-27.168l240.448-240.544v27.168z" />
<glyph unicode="&#xe64c;" glyph-name="quote" d="M936.224 872.224v-629.024h-544.352l-99.296-148.992-99.328 148.992h-105.504v629.024h848.48zM1024 960h-1024v-804.576h146.304l146.272-219.424 146.272 219.424h585.152v804.576zM456.864 704.224c-35.456-6.688-60.416-32.416-74.816-77.152-7.2-22.112-10.784-43.936-10.784-65.536 0-2.56 0.096-4.768 0.352-6.56s0.64-5.76 1.152-11.936h84.064v-168.16h-164.256v155.040c0 76.096 15.168 134.72 45.536 175.84 30.336 41.152 69.92 64.8 118.784 70.976l-0.032-72.512zM716.864 704.224c-28.352-4.64-49.76-20.576-64.448-47.84-14.624-27.232-22.016-58.624-22.016-94.080 0-3.104 0.16-6.208 0.384-9.28 0.288-3.040 0.928-6.4 1.952-9.984h84.128v-168.16h-165.088v155.040c0 61.152 12.864 115.84 38.528 163.904 25.792 48.064 67.872 75.712 126.592 82.912l-0.032-72.512z" />
<glyph unicode="&#xe64d;" glyph-name="right-align" d="M170.656 746.656h853.344v-85.344h-853.344c0 0.032 0 85.344 0 85.344zM170.656 234.656h853.344v-85.344h-853.344c0 0.032 0 85.344 0 85.344zM0 576h1024v-85.344h-1024c0 0 0 85.344 0 85.344zM256 405.344h768v-85.344h-768v85.344z" />
<glyph unicode="&#xe64e;" glyph-name="right-arrow-rounded" d="M244.928 828.416c-29.856 30.208-29.856 78.88 0 108.928 29.824 30.208 78.048 30.208 107.84 0l426.304-434.88c29.856-30.208 29.856-78.88 0-108.928l-426.304-435.008c-29.824-30.048-78.048-30.048-107.84 0-29.856 30.208-29.856 78.816 0 108.928l349.504 380.48-349.504 380.48z" />
<glyph unicode="&#xe64f;" glyph-name="right-arrow" d="M71.68 352h702.048l-222.592-210.528c-28.288-28.288-28.256-68.096 0.032-96.352l1.024 1.984c28.32-28.256 74.144-26.752 102.432 1.536l348.896 349.664c12.416 12.992 20.48 30.88 20.48 50.208v1.472c0 19.296-8.032 36.736-20.352 49.728l-2.88 2.688-346.048 345.984c-28.288 28.288-74.176 28.288-102.464 0l-1.056-1.024c-28.288-28.256-28.32-63.296-0.032-91.584l222.56-211.776h-702.048c-39.968 0-71.68-54.016-71.68-94.016v-1.472c0-39.968 31.712-96.512 71.68-96.512z" />
<glyph unicode="&#xe650;" glyph-name="rocketship" d="M643.648 298.528c0 0 410.72 296.352 365.184 635.552-1.056 7.456-3.488 12.32-6.496 15.648-3.2 3.104-7.968 5.632-15.296 6.688-331.456 46.464-621.024-373.76-621.024-373.76-251.232 30.144-232.96-20-347.584-295.296-21.92-52.48 13.6-70.592 52.576-55.776 38.976 14.656 125.024 47.2 125.024 47.2l150.624-154.112c0 0-31.776-88.032-46.144-127.904-14.368-39.968 3.264-76.32 54.592-53.92 269.024 117.344 318.048 98.688 288.576 355.712l-0.032-0.032zM702.304 642.752c-34.816 35.616-34.816 93.312 0 128.96 34.816 35.552 91.168 35.552 125.952 0 34.848-35.552 34.848-93.312 0-128.96-34.72-35.648-91.168-35.648-125.952 0z" />
<glyph unicode="&#xe651;" glyph-name="search2" d="M1000.992 93.664l-244.896 244.896c36.928 60.704 58.208 131.904 58.208 208.16 0 221.408-191.936 413.28-413.376 413.28s-400.928-179.52-400.928-400.928c0-221.44 191.84-413.376 413.28-413.376 73.632 0 142.592 19.968 201.888 54.656l246.208-246.272c24.192-24.096 63.2-24.096 87.264 0l61.12 61.056c24.064 24.096 15.296 54.432-8.736 78.496v0.032zM123.392 559.104c0 153.28 124.224 277.6 277.504 277.6 153.344 0 289.952-136.64 289.952-289.952s-124.224-277.6-277.6-277.6-289.92 136.64-289.92 289.952h0.064z" />
<glyph unicode="&#xe652;" glyph-name="share2" d="M768 294.4c-35.232 0-67.488-11.936-93.376-31.84l-267.2 160.32c1.28 8.192 2.208 16.576 2.208 25.152 0 8.608-0.928 16.96-2.208 25.152l267.2 160.32c25.92-19.904 58.176-31.84 93.376-31.84 84.8 0 153.6 68.768 153.6 153.6s-68.8 153.6-153.6 153.6-153.6-68.768-153.6-153.6c0-8.544 0.928-16.96 2.24-25.152l-267.2-160.352c-25.92 19.968-58.208 31.904-93.44 31.904-84.832 0-153.6-68.768-153.6-153.6 0-84.8 68.768-153.6 153.6-153.6 35.232 0 67.52 11.936 93.44 31.84l267.2-160.32c-1.344-8.192-2.24-16.544-2.24-25.152 0-84.8 68.8-153.6 153.6-153.6s153.6 68.8 153.6 153.6-68.8 153.6-153.6 153.6z" />
<glyph unicode="&#xe653;" glyph-name="shopping-cart2" d="M958.592 726.368h-690.016l-66.56 151.584h-138.016c-17.664 0-32-14.336-32-32v-11.776c0-17.6 14.4-32 32-32h58.24l137.792-551.616 612.48 88.512c17.92 2.56 32.608 16.288 37.28 33.76l81.056 307.36c5.664 21.248-10.304 46.176-32.256 46.176zM290.88 581.248c0 0.928 0.224 1.792 0.288 2.72-0.064 0.928-0.288 1.792-0.288 2.72 0 23.136 17.728 41.888 40.288 44.032 7.2 1.472 14.944 1.44 22.944-0.512 18.336-4.544 33.12-20.032 36.8-38.56 6.464-32.448-18.176-60.928-49.504-60.928-27.904 0-50.528 22.624-50.528 50.528zM417.216 404.384c-12.256 0-23.328 4.544-32.064 11.776-12.128 7.936-20.16 21.6-20.16 37.184 0 9.28 2.848 17.888 7.712 24.992 10.176 19.296 32.192 31.392 56.608 25.696 18.464-4.32 33.504-19.776 37.344-38.368 6.688-32.576-18.016-61.28-49.44-61.28zM442.464 581.248c0 27.904 22.624 50.528 50.528 50.528s50.528-22.624 50.528-50.528-22.624-50.528-50.528-50.528c-27.904 0-50.528 22.624-50.528 50.528zM568.8 404.384c-27.904 0-50.528 22.624-50.528 50.528s22.624 50.528 50.528 50.528c27.904 0 50.528-22.624 50.528-50.528s-22.624-50.528-50.528-50.528zM594.048 581.248c0 27.904 22.624 50.528 50.528 50.528s50.528-22.624 50.528-50.528-22.624-50.528-50.528-50.528c-27.904 0-50.528 22.624-50.528 50.528zM720.352 404.384c-27.904 0-50.528 22.624-50.528 50.528s22.624 50.528 50.528 50.528c27.904 0 50.528-22.624 50.528-50.528s-22.624-50.528-50.528-50.528zM796.16 530.72c-30.624 0-54.912 27.264-49.856 58.848 2.816 17.76 15.808 33.184 32.736 39.2 9.632 3.424 18.912 3.712 27.456 1.92 22.432-2.24 40.032-20.96 40.032-44 0-0.64-0.16-1.248-0.192-1.856 0.096-1.216 0.352-2.368 0.352-3.584 0-27.904-22.624-50.528-50.528-50.528zM462.432 106.944c0-49.088-39.808-88.896-88.896-88.896s-88.896 39.808-88.896 88.896c0 49.088 39.808 88.896 88.896 88.896s88.896-39.808 88.896-88.896zM841.376 106.944c0-49.088-39.808-88.896-88.896-88.896s-88.896 39.808-88.896 88.896c0 49.088 39.808 88.896 88.896 88.896s88.896-39.808 88.896-88.896z" />
<glyph unicode="&#xe654;" glyph-name="text-size" d="M608.48 781.696h133.472l282.048-667.392h-151.36l-60.192 173.024h-278.24l-60.192-173.024h-147.584c0.032 0 282.048 667.392 282.048 667.392zM760.768 386.208l-87.456 213.408-87.456-213.408h174.912zM310.272 199.872l-5.44 13.28h-174.528l-37.728-98.88h-92.576l176.864 420.224h83.744l96.352-225.6-46.688-109.024zM272.416 287.328l-54.848 133.824-54.848-133.824h109.696z" />
<glyph unicode="&#xe655;" glyph-name="text" d="M55.84 960h912.32l1.504-305.568h-43.712c-14.336 109.312-55.264 183.232-122.816 221.856-38.016 21.28-94.72 32.864-170.208 34.88v-798.24c0-55.776 9.696-92.768 29.248-111.072 19.456-18.272 60.032-27.424 121.696-27.424v-38.432h-540.096v38.432c59.168 0 98.528 9.28 118.016 27.808s29.248 55.392 29.248 110.688v798.24c-73.92-2.016-130.72-13.632-170.144-34.88-72.544-39.552-113.504-113.568-122.88-221.856h-43.68l1.568 305.568h-0.064z" />
<glyph unicode="&#xe656;" glyph-name="thin_close" d="M0-10.080l54.176-54.176 509.728 509.728-2.496 2.528 2.496 2.496-509.728 509.76-54.176-54.208 458.080-458.048zM1024 906.048l-54.176 54.208-509.728-509.76 2.496-2.496-2.496-2.528 509.728-509.728 54.176 54.176-458.080 458.080z" />
<glyph unicode="&#xe657;" glyph-name="tools" d="M160.448 607.232c47.808 37.12 87.456 11.584 140.352-49.664 5.984-6.848 13.984 1.184 18.496 5.12 4.512 4 74.336 66.752 77.728 69.696 3.424 3.008 7.52 8.64 2.112 14.944s-25.28 32-38.048 48.64c-92.576 121.088 253.248 203.2 200.096 204.48-26.976 0.704-135.488 1.952-151.648 0.256-65.696-6.976-148.16-68.352-189.696-96.928-54.272-37.312-74.592-58.976-77.92-62.016-15.36-13.472-2.464-44.384-30.304-68.8-29.44-25.792-47.776-6.304-64.832-21.248-8.512-7.488-32.096-25.152-38.912-31.136-6.752-5.952-8-16.032-1.088-24.128 0 0 64.672-71.488 70.144-77.76 5.44-6.304 20.032-11.616 29.088-3.648s32.32 28.352 36.256 31.84c4 3.424-2.56 44.192 18.24 60.32zM452.768 580.8c-6.144 7.104-13.728 7.264-20.32 1.44l-73.472-64.064c-5.728-5.12-6.496-14.528-1.344-20.48l424.64-483.232c9.888-11.456 27.072-12.64 38.496-2.72l49.728 41.568c11.328 9.92 12.48 27.328 2.624 38.752l-420.352 488.704zM1018.976 786.496c-3.776 25.28-16.896 19.968-23.712 9.216-6.72-10.688-36.928-56.384-49.312-76.992-12.288-20.576-42.496-60.992-99.008-21.088-58.784 41.568-38.304 70.592-28.096 90.112 10.304 19.616 41.888 74.496 46.496 81.408 4.512 6.912-0.832 26.976-19.008 18.592-18.272-8.448-129.184-52.544-144.576-115.712-15.712-64.352 13.216-121.792-43.52-178.88l-68.704-71.68 69.024-80.288 84.672 80.448c20.224 20.288 63.296 40 102.304 31.136 83.616-18.944 129.184 12.48 156.736 64.352 24.672 46.432 20.576 144.128 16.736 169.408zM140.288 86.976c-10.656-10.752-10.656-28.16 0-38.848l48.704-47.616c10.656-10.688 27.552-6.208 38.208 4.512l251.232 247.040-76.992 87.712-261.12-252.768z" />
<glyph unicode="&#xe658;" glyph-name="trash" d="M739.136-64h-472.64c-54.304 0-98.464 44.16-98.464 98.464v676.128h39.392v-676.096c0-32.576 26.496-59.072 59.072-59.072h472.608c32.576 0 59.072 26.496 59.072 59.072v676.096h39.392v-676.096c-0.032-54.304-44.192-98.464-98.464-98.464zM351.84 631.776h26.24v-538.24h-26.24v538.24zM496.256 631.776h26.24v-538.24h-26.24v538.24zM640.672 631.776h26.24v-538.24h-26.24v538.24zM76.16 815.584h866.464v-39.392h-866.464v39.392zM693.152 802.464h-39.392v98.464c0 10.848-8.832 19.68-19.68 19.68h-262.56c-10.848 0-19.68-8.832-19.68-19.68v-98.464h-39.392v98.464c0.032 32.576 26.496 59.072 59.072 59.072h262.56c32.576 0 59.072-26.496 59.072-59.072v-98.464z" />
<glyph unicode="&#xe659;" glyph-name="trash2" d="M173.504 554.912l56.416-497.088c3.008-23.616 116.992-101.216 282.048-101.312 165.056 0.096 279.104 77.728 282.112 101.312l56.416 497.088c-86.208-48.224-215.104-71.072-338.528-71.072s-252.32 22.848-338.496 71.072zM674.144 862.112l-43.968 48.8c-16.96 24.128-35.392 28.608-71.264 28.608h-93.792c-35.84 0-54.272-4.512-71.264-28.608l-43.936-48.8c-131.584-22.976-227.008-83.968-227.008-128.928v-8.768c0-79.168 174.176-143.36 389.12-143.36s389.12 64.192 389.12 143.36v8.768c0 44.96-95.392 105.92-226.976 128.928zM617.92 748.096l-64.096 68.544h-83.648l-64.096-68.544h-87.040c0 0 95.328 113.664 108.096 129.088 9.728 11.776 19.712 16.288 32.608 16.288h104.608c12.896 0 22.848-4.512 32.608-16.288 12.704-15.424 108.096-129.088 108.096-129.088h-87.104z" />
<glyph unicode="&#xe65a;" glyph-name="upload" d="M778.944 594.432c-14.080 0-27.968-1.216-41.408-3.488-33.6 109.824-137.632 189.856-260.928 189.856-150.432 0-272.352-119.2-272.352-266.272 0-13.12 1.024-26.016 2.912-38.624-7.232 0.8-14.496 1.376-21.952 1.376-102.24 0.032-185.216-81.056-185.216-181.024 0-100 82.976-181.056 185.216-181.056h255.136v194.56h-107.52l179.2 235.52 179.2-235.52h-107.52v-194.592h195.2c135.456 0 245.12 107.36 245.12 239.648 0 132.352-109.696 239.616-245.088 239.616 0 0 0 0 0 0z" />
<glyph unicode="&#xe65b;" glyph-name="users" d="M1024-2.56c0 0-1.984 193.888-13.888 213.952-17.664 29.952-58.688 50.496-134.848 82.336-75.936 31.744-100.256 58.56-100.256 115.872 0 34.464 23.2 23.2 33.376 86.208 4.192 26.176 24.672 0.448 28.608 60.096 0 23.808-11.168 29.76-11.168 29.76s5.632 35.232 7.872 62.304c2.752 33.792-17.056 120.992-122.464 120.992s-125.12-87.232-122.432-120.992c2.208-27.072 7.84-62.304 7.84-62.304s-11.168-5.952-11.168-29.76c3.936-59.712 24.416-33.984 28.672-60.096 10.144-63.040 33.344-51.776 33.344-86.208 0-38.976-11.264-63.84-42.336-85.696 165.888-83.040 188.16-100 188.16-174.24v-152.224h230.656zM523.456 264.96c-101.312 42.304-133.632 78.016-133.632 154.464 0 45.888 30.912 30.912 44.48 115.008 5.568 34.88 32.96 0.576 38.144 80.128 0 31.744-14.912 39.616-14.912 39.616s7.584 46.944 10.56 83.104c3.68 44.96-22.72 161.28-163.264 161.28s-166.912-116.288-163.232-161.28c2.976-36.16 10.496-83.104 10.496-83.104s-14.848-7.872-14.848-39.616c5.28-79.616 32.576-45.312 38.208-80.128 13.568-84.064 44.48-69.056 44.48-115.008 0-76.448-32.416-112.192-133.632-154.464-30.88-12.896-86.336-32.928-86.336-80.96v-186.56h711.36c0 0 0 110.336 0 139.84 0 43.872-86.368 85.184-187.904 127.68z" />
<glyph unicode="&#xe65c;" glyph-name="video" d="M715.712 488.576l308.288 178.016v-442.048l-308.288 177.984v-103.168c0-72.96-59.168-132.128-132.128-132.128h-451.456c-72.96 0-132.128 59.168-132.128 132.128v297.28c0 72.96 59.168 132.128 132.128 132.128h451.456c72.96 0 132.128-59.168 132.128-132.128z" />
<glyph unicode="&#xe65d;" glyph-name="wallet" d="M896 0.48h-576c-35.328 0-65.504 12.512-90.496 37.504s-37.504 55.2-37.504 90.496h-64c-35.328 0-65.504 12.512-90.496 37.504s-37.504 55.2-37.504 90.496v512c0 35.328 12.512 65.344 37.504 90.016s55.168 37.024 90.496 36.992h768c35.328 0 65.504-12.32 90.496-36.992s37.504-54.656 37.504-90.016v-640c0-35.328-12.512-65.504-37.504-90.496s-55.168-37.504-90.496-37.504zM416 256.48c64 0 96 32 96 96s-32 96-96 96-96-32-96-96 32-96 96-96zM864 768.48h-647.008c-24.672 0-45.664-8.32-63.008-24.992s-26.016-36.992-26.016-60.992v-340.992c0-19.328 6.016-36.48 18.016-51.488 12-14.976 27.36-24.8 46.016-29.504v316c0 35.328 12.512 65.504 37.504 90.496 24.992 25.024 55.168 37.504 90.496 37.504h544c8.672 0 16.16 3.008 22.496 8.992s9.504 13.504 9.504 22.496c0 8.992-3.168 16.672-9.504 23.008s-13.824 9.504-22.496 9.472v0z" />
<glyph unicode="&#xe65e;" glyph-name="youtube" d="M832 832h-640c-105.6 0-192-86.4-192-192v-384c0-105.6 86.4-192 192-192h640c105.6 0 192 86.4 192 192v384c0 105.6-86.4 192-192 192zM384 192v512l320-256-320-256z" />
<glyph unicode="&#xe65f;" glyph-name="lock2" d="M809.010 568.916h-92.212v71.68c0 148.326-68.302 235.52-204.8 235.52-136.448 0-204.8-87.194-204.8-235.52v-71.68h-102.4c-28.262 0-51.2-33.126-51.2-61.44v-399.36c0-28.16 21.966-58.318 48.742-66.918l61.234-19.814c26.778-8.654 71.73-15.718 99.942-15.718h296.96c28.16 0 73.164 7.066 99.942 15.718l61.236 19.814c26.828 8.602 48.742 38.758 48.742 66.918v399.36c0 28.314-33.126 61.44-61.39 61.44zM409.6 661.076c0 73.984 40.858 112.64 102.4 112.64 61.594 0 102.4-38.656 102.4-112.64v-92.16h-204.8v92.16z" />
<glyph unicode="&#xe660;" glyph-name="floppy-o" d="M219.43 78.962h438.858v219.428h-438.858v-219.428zM731.428 78.962h73.144v512q0 8-5.714 22t-11.428 19.714l-160.572 160.572q-5.714 5.714-19.428 11.428t-22.286 5.714v-237.714q0-22.856-16-38.856t-38.856-16h-329.142q-22.856 0-38.856 16t-16 38.856v237.714h-73.144v-731.428h73.144v237.714q0 22.856 16 38.856t38.856 16h475.43q22.856 0 38.856-16t16-38.856v-237.714zM512 609.246v182.856q0 7.428-5.428 12.856t-12.856 5.428h-109.714q-7.428 0-12.858-5.428t-5.428-12.856v-182.856q0-7.428 5.428-12.856t12.856-5.428h109.714q7.428 0 12.858 5.428t5.428 12.856zM877.714 590.962v-530.286q0-22.856-16-38.856t-38.856-16h-768q-22.856 0-38.856 16t-16 38.856v768q0 22.856 16 38.856t38.856 16h530.286q22.856 0 50.286-11.428t43.428-27.428l160-160q16-16 27.428-43.428t11.428-50.286z" />
<glyph unicode="&#xe661;" glyph-name="pictures_add_to_album" horiz-adv-x="1326" d="M932.81-52.288c-9.202 0-16.732 7.528-16.732 16.732v426.666c0 9.202 7.528 16.732 16.732 16.732s16.732-7.528 16.732-16.732v-426.666c0-9.202-7.528-16.732-16.732-16.732zM1146.144 161.046h-426.666c-9.202 0-16.732 7.528-16.732 16.732s7.528 16.732 16.732 16.732h426.666c9.202 0 16.732-7.528 16.732-16.732s-7.528-16.732-16.732-16.732zM250.144 135.11c-9.204 0-16.732 7.528-16.732 16.732v566.38c0 9.202 7.528 16.732 16.732 16.732h796.444c9.202 0 16.732-7.528 16.732-16.732v-440.89c0-9.202-7.528-16.732-16.732-16.732s-16.732 7.528-16.732 16.732v424.158h-762.98v-549.648c0-9.202-7.528-16.732-16.732-16.732zM605.698 132.6h-358.4c-40.992 0-70.776 27.442-70.776 65.088v637.156c0 40.324 30.452 70.776 70.776 70.776h187.734c9.202 0 16.732-7.528 16.732-16.732s-7.528-16.732-16.732-16.732h-187.734c-21.92 0-37.312-15.392-37.312-37.312v-637.156c0-18.906 15.058-31.624 37.312-31.624h358.4c9.202 0 16.732-7.528 16.732-16.732s-7.528-16.732-16.732-16.732zM951.216 700.654c-9.202 0-16.732 7.528-16.732 16.732v59.732c0 13.72-2.51 18.072-4.016 19.408-1.674 1.674-6.524 3.682-19.076 3.682h-344.178c-9.202 0-16.732 7.528-16.732 16.732s7.528 16.732 16.732 16.732h344.178c39.154 0 56.554-17.402 56.554-56.554v-59.732c0-9.202-7.528-16.732-16.732-16.732zM565.876 801.046c-52.37 0-70.106 23.426-84.498 42.164-12.716 16.732-21.918 28.946-57.726 28.946-9.202 0-16.732 7.528-16.732 16.732s7.528 16.732 16.732 16.732c52.37 0 70.106-23.424 84.498-42.164 12.716-16.732 21.92-28.946 57.724-28.946 9.202 0 16.732-7.528 16.732-16.732s-7.528-16.732-16.732-16.732z" />
<glyph unicode="&#xe662;" glyph-name="pictures_albums" horiz-adv-x="1326" d="M1046.588 104.156h-824.89c-9.204 0-16.732 7.528-16.732 16.732v625.778c0 9.204 7.528 16.732 16.732 16.732h824.89c9.202 0 16.732-7.528 16.732-16.732v-625.778c0-9.202-7.528-16.732-16.732-16.732zM238.432 137.62h791.424v592.314h-791.424v-592.314zM463.476 530.824c-48.356 0-87.844 39.488-87.844 87.842s39.488 87.844 87.844 87.844 87.842-39.488 87.842-87.844-39.488-87.842-87.844-87.842zM463.476 673.046c-29.95 0-54.38-24.428-54.38-54.38s24.428-54.38 54.38-54.38 54.38 24.428 54.38 54.38-24.428 54.38-54.38 54.38zM335.476 217.934c-4.35 0-8.534 1.674-11.88 4.852-6.524 6.526-6.524 17.068 0 23.592l256 256c6.524 6.524 17.068 6.524 23.592 0l170.668-170.668c6.524-6.524 6.524-17.068 0-23.592s-17.068-6.526-23.592 0l-158.788 158.786-244.12-244.12c-3.346-3.178-7.528-4.852-11.88-4.852zM1046.588 360.156c-4.35 0-8.532 1.674-11.88 4.852l-187.23 187.398-158.788-158.788c-6.524-6.524-17.068-6.524-23.592 0s-6.524 17.068 0 23.592l170.668 170.666c6.524 6.526 17.068 6.526 23.592 0l199.11-199.11c6.526-6.526 6.526-17.068 0-23.592-3.346-3.346-7.528-5.020-11.88-5.020zM1003.922 786.824h-711.11c-9.202 0-16.732 7.528-16.732 16.732s7.528 16.732 16.732 16.732h711.11c9.202 0 16.732-7.528 16.732-16.732s-7.528-16.732-16.732-16.732zM947.034 843.712h-597.332c-9.202 0-16.732 7.528-16.732 16.732s7.528 16.732 16.732 16.732h597.332c9.202 0 16.732-7.528 16.732-16.732s-7.528-16.732-16.732-16.732z" />
<glyph unicode="&#xe663;" glyph-name="pictures_check_mark" horiz-adv-x="1326" d="M992.208 33.046h-829.908v829.908h829.908v-130.51h-33.464v97.046h-762.98v-762.98h762.98v466.824h33.464zM583.11 205.386l-193.924 190.912 23.426 23.76 170.166-167.488 557.176 562.698 23.76-23.424z" />
<glyph unicode="&#xe664;" glyph-name="pictures_download" horiz-adv-x="1326" d="M949.876 217.934h-145.068c-9.202 0-16.732 7.528-16.732 16.732s7.528 16.732 16.732 16.732h145.068c42.164 0 82.154 17.234 112.44 48.522 30.452 31.456 47.184 72.952 47.184 116.79 0 75.462-55.384 144.23-129.004 159.958-4.518 1.004-8.366 3.68-10.708 7.528s-3.178 8.532-2.008 12.884c2.342 9.37 2.342 22.42 2.342 32.962 0 125.658-102.234 227.89-227.89 227.89-50.196 0-97.882-16.062-137.872-46.348-38.818-29.448-67.932-71.446-82.322-118.128-1.674-5.69-6.192-9.872-11.88-11.378s-11.712 0.168-15.894 4.35c-19.074 19.242-45.512 29.28-76.298 29.28-30.954 0-59.734-12.048-81.318-33.798-21.25-21.584-32.796-50.028-32.796-80.314 0-7.864 0-11.546 2.008-17.402 2.844-8.534-1.506-17.568-9.704-20.914-59.064-23.090-100.224-84.498-100.224-149.418 0-88.010 73.118-162.468 159.624-162.468h250.144c9.202 0 16.732-7.528 16.732-16.732s-7.528-16.732-16.732-16.732h-250.312c-51.2 0-99.556 20.748-136.366 58.394-36.644 37.312-56.722 86.17-56.722 137.538 0 73.454 44.004 143.394 108.592 174.85-0.502 4.35-0.502 8.534-0.502 12.884 0 39.154 15.060 75.962 42.5 103.906 27.774 28.276 65.088 43.67 105.076 43.67 29.95 0 57.726-8.030 80.314-22.924 18.072 44.508 47.352 82.824 85.836 112.106 46.014 34.634 100.558 53.042 158.118 53.042 144.062 0 261.354-117.292 261.354-261.354 0-7.528 0-16.064-0.668-24.596 36.642-11.21 69.94-33.632 95.038-64.418 29.114-35.472 45.010-79.644 45.010-124.318 0-52.538-20.078-102.232-56.554-140.048-36.81-37.814-85.166-58.73-136.534-58.73zM705.254 4.6c-9.202 0-16.732 7.528-16.732 16.732v540.444c0 9.202 7.528 16.732 16.732 16.732s16.732-7.528 16.732-16.732v-540.444c0-9.202-7.528-16.732-16.732-16.732zM705.254 15.978c-4.518 0-8.702 1.84-11.88 4.852l-142.222 142.222c-6.524 6.526-6.524 17.068 0 23.592s17.068 6.524 23.592 0l130.342-130.342 127.498 130.176c6.524 6.524 17.068 6.692 23.592 0.166s6.692-17.068 0.168-23.592l-139.378-142.222c-2.844-3.012-7.196-4.852-11.712-4.852 0 0 0 0 0 0z" />
<glyph unicode="&#xe665;" glyph-name="pictures_search" horiz-adv-x="1326" d="M568.722 183.8c-95.706 0-185.558 37.312-253.156 104.91s-104.91 157.616-104.91 253.156 37.312 185.558 104.91 253.156 157.616 104.91 253.156 104.91 185.558-37.312 253.156-104.91c67.596-67.596 104.91-157.616 104.91-253.156s-37.312-185.558-104.91-253.156c-67.596-67.596-157.448-104.91-253.156-104.91zM568.722 866.468c-179.034 0-324.6-145.57-324.6-324.6s145.568-324.6 324.6-324.6 324.6 145.568 324.6 324.6-145.568 324.602-324.6 324.602zM1065.83-2.762l-289.13 289.128 49.86 49.862 289.128-289.13-49.862-49.86zM824.052 286.368l241.778-241.778 2.51 2.51-241.778 241.778-2.51-2.51z" />
<glyph unicode="&#xe666;" glyph-name="pictures_tag" horiz-adv-x="1326" d="M924.278 599.090c-45.344 0-82.154 36.81-82.154 82.154s36.81 82.154 82.154 82.154c45.344 0 82.154-36.81 82.154-82.154s-36.81-82.154-82.154-82.154zM924.278 729.934c-26.77 0-48.69-21.918-48.69-48.69s21.918-48.69 48.69-48.69 48.69 21.918 48.69 48.69-21.918 48.69-48.69 48.69zM578.76 3.932c-17.736 0-34.634 7.028-47.352 19.912l-264.702 264.366c-26.604 26.604-26.604 65.254 0 91.858l446.41 457.956c0 0 0.168 0.166 0.168 0.166 9.872 9.872 21.25 11.044 30.284 11.044 2.678 0 5.354-0.168 7.864-0.168 2.51-0.166 5.188-0.166 7.864-0.166h281.6c13.72 0 27.776-1.34 38.148-10.876 11.21-10.542 12.716-26.102 12.716-39.99v-281.6c0-2.678 0.166-5.188 0.166-7.864 0.502-11.712 1.172-26.27-10.876-38.15l-455.278-446.744c-12.548-12.716-29.28-19.744-47.018-19.744zM737.046 814.598l-446.41-457.956c0 0-0.166-0.168-0.166-0.168-13.386-13.386-13.386-31.288 0-44.674l264.534-264.532c6.524-6.526 14.892-10.038 23.76-10.038s17.234 3.514 23.76 10.038l455.278 446.744c1.338 1.338 1.338 5.188 1.004 12.884-0.166 2.844-0.336 5.856-0.336 9.202v281.766c0 13.050-2.174 15.562-2.174 15.562-0.166 0.168-2.51 1.842-15.226 1.842h-281.768c-3.346 0-6.524 0.166-9.202 0.336-2.342 0.166-4.518 0.166-6.358 0.166-5.354 0-6.192-0.668-6.692-1.17z" />
</font>
</defs>
</svg>
